<?xml version="1.0" standalone="no"?>
<!DOCTYPE svg PUBLIC "-//W3C//DTD SVG 1.1//EN" "http://www.w3.org/Graphics/SVG/1.1/DTD/svg11.dtd" >
<svg xmlns="http://www.w3.org/2000/svg">
<metadata>
This is a custom SVG webfont generated by Font Squirrel.
Copyright   :  1989 2002 Adobe Systems Incorporated All rights reserved
Designer    : Jan Tschichold
Foundry URL : httpwwwadobecomtype
</metadata>
<defs>
<font id="SabonLTStdBoldItalic" horiz-adv-x="1138" >
<font-face units-per-em="2048" ascent="1565" descent="-483" />
<missing-glyph horiz-adv-x="569" />
<glyph unicode=" "  horiz-adv-x="569" />
<glyph unicode="&#x09;" horiz-adv-x="569" />
<glyph unicode="&#xa0;" horiz-adv-x="569" />
<glyph unicode="!" horiz-adv-x="681" d="M123 120.5q0 59.5 46 105.5t105.5 46t105.5 -46t46 -105.5t-46 -105.5t-105.5 -46t-105.5 46t-46 105.5zM299 424q6 70 16.5 195.5t18.5 229t14 195.5q4 55 7 86t15.5 90.5t30 93.5t52 61.5t82.5 27.5q141 0 141 -148q0 -59 -66.5 -226t-152.5 -359.5t-107 -253.5z" />
<glyph unicode="&#x22;" horiz-adv-x="1062" d="M340 1321q0 109 104 109q70 0 91.5 -30t21.5 -79q0 -16 -4 -41l-43 -373q-4 -31 -16.5 -43t-42.5 -12q-35 0 -47.5 12.5t-16.5 42.5l-43 373q-4 25 -4 41zM721 1321q0 109 104 109q70 0 91.5 -30t21.5 -79q0 -16 -4 -41l-43 -373q-4 -31 -16.5 -43t-43.5 -12 q-35 0 -47 12.5t-16 42.5l-43 373q-4 25 -4 41z" />
<glyph unicode="#" d="M74 403l20 140h228l40 297h-225l21 139h225l61 434h142l-62 -434h250l62 434h141l-62 -434h226l-21 -139h-225l-41 -297h223l-20 -140h-223l-58 -403h-141l57 403h-250l-57 -403h-141l57 403h-227zM463 543h250l41 297h-250z" />
<glyph unicode="$" d="M70 4q31 195 51 414l61 4q0 -145 67.5 -253t192.5 -120l101 561q-88 84 -134.5 134.5t-93.5 139.5t-47 177q0 184 126 289.5t304 109.5l21 115h69l-20 -119q94 -4 154 -31q41 -18 63 -18q27 0 35 25l49 -5q-39 -190 -59 -364l-66 -8q4 37 4 92q0 84 -46 151.5t-148 83.5 l-92 -503q4 -4 39.5 -41t44 -45.5t41 -43t43 -48t36 -46t34.5 -51t26.5 -50.5t23.5 -56.5t12.5 -55t6.5 -59.5q0 -193 -132 -301.5t-339 -112.5l-33 -174h-70l33 180q-106 10 -242 72l-80 -47zM473 1155q0 -84 129 -217l82 444q-100 -6 -155.5 -64.5t-55.5 -162.5zM512 47 q102 12 164.5 76.5t62.5 183.5q0 102 -137 244z" />
<glyph unicode="%" horiz-adv-x="2048" d="M283 1036q0 172 112.5 290t278.5 118q143 0 233 -78t90 -219q0 -172 -112.5 -290t-278.5 -118q-143 0 -233 78t-90 219zM487 934q0 -55 28 -94t79 -39q57 0 99 51t62.5 130t29 146.5t8.5 124.5q0 55 -28 92t-79 37q-57 0 -99 -51t-62.5 -128t-29 -144.5t-8.5 -124.5z M578 -61l901 1536h120l-901 -1536h-120zM1178 266q0 172 112.5 290t278.5 118q143 0 233 -78t90 -219q0 -172 -112.5 -290t-278.5 -118q-143 0 -233 78t-90 219zM1382 164q0 -55 28 -94t79 -39q57 0 99 51t62.5 130t29 146.5t8.5 124.5q0 55 -28 92t-79 37q-57 0 -99 -51 t-62.5 -128t-29 -144.5t-8.5 -124.5z" />
<glyph unicode="&#x26;" horiz-adv-x="1820" d="M139 498q0 131 71 273t194.5 241.5t257.5 99.5q117 0 159 -78q10 12 65.5 66.5t78 80t48 71.5t25.5 85q0 12 -7 42t-7 53q0 33 29.5 60.5t68.5 27.5q106 0 107 -101q0 -121 -359 -436q-279 -244 -358 -330q-143 -154 -143 -239q0 -78 64.5 -132.5t142 -75t153.5 -20.5 q279 0 455 163t176 442q-94 109 -180 108q-47 0 -86 -37t-39 -82q0 -33 21.5 -48t46 -19t46 -23.5t21.5 -56.5q0 -45 -35 -68.5t-82 -23.5q-55 0 -94 42t-39 97q0 125 123 241.5t246 116.5q63 0 128.5 -41t108.5 -89t89 -89t77 -41q23 0 45.5 16.5t22.5 43.5q0 20 -35 56 t-35 67q0 82 70 81q51 0 76.5 -35.5t25.5 -88.5q0 -94 -100.5 -186.5t-184.5 -92.5q-23 0 -42 4t-39.5 17.5t-30.5 20.5t-34 28.5t-30 25.5q-27 -338 -210 -552t-509 -214q-145 0 -256.5 45t-176 122t-97.5 168.5t-33 193.5zM283 627q0 -80 16 -138q23 35 52.5 73t53 64.5 t63.5 67.5t58.5 58.5t66.5 63.5t62 58q0 61 -26.5 86t-79.5 25q-119 0 -192.5 -116.5t-73.5 -241.5z" />
<glyph unicode="'" horiz-adv-x="569" d="M281 1321q0 109 104 109q70 0 91.5 -30t21.5 -79q0 -16 -4 -41l-43 -373q-4 -31 -16.5 -43t-43.5 -12q-35 0 -47 12.5t-16 42.5l-43 373q-4 25 -4 41z" />
<glyph unicode="(" horiz-adv-x="681" d="M158 360q0 305 143 593t381 520l76 -68q-217 -215 -339 -503t-122 -591q0 -324 139 -657l-96 -37q-182 323 -182 743z" />
<glyph unicode=")" horiz-adv-x="681" d="M-76 -315q217 215 339 502.5t122 590.5q0 324 -139 658l96 37q182 -324 182 -744q0 -305 -143 -593t-381 -519z" />
<glyph unicode="*" horiz-adv-x="948" d="M258 911q0 43 46 70t126 45t92 23l19 -27q-16 -16 -52 -72.5t-72 -93.5t-71 -37q-39 0 -63.5 29.5t-24.5 62.5zM258 1239q0 35 23.5 61.5t66.5 26.5q27 0 64 -39t75.5 -91t53.5 -67l-19 -28q-18 6 -62 14t-73 16.5t-61.5 21.5t-50 34.5t-17.5 50.5zM578 817q0 53 4 114.5 t4 82.5l32 8l78 -109q53 -74 54 -116q0 -39 -26 -58.5t-65 -19.5q-81 0 -81 98zM582 1137v145q0 86 20.5 117t71.5 31q33 0 56.5 -20.5t23.5 -55.5q0 -29 -24.5 -70t-61.5 -89t-50 -69zM647 1061v18v19q12 2 103.5 32.5t115.5 30.5q41 0 62.5 -24.5t21.5 -57t-21.5 -57.5 t-62.5 -25q-25 0 -116 31t-103 33z" />
<glyph unicode="+" d="M53 424v184h424v424h185v-424h423v-184h-423v-424h-185v424h-424z" />
<glyph unicode="," horiz-adv-x="569" d="M-37 -260q98 12 196.5 64.5t98.5 127.5q0 39 -26.5 57.5t-59.5 22.5t-59.5 35t-26.5 90q0 57 39 96t98 39q96 0 143.5 -58t47.5 -153q0 -74 -29 -137t-74 -104t-104.5 -72t-114.5 -47t-110 -23z" />
<glyph unicode="-" horiz-adv-x="757" d="M88 406q23 53 51 163q258 -6 260 -6l295 6q-33 -123 -41 -163q-33 0 -92 2t-108.5 3t-92.5 1q-2 0 -272 -6z" />
<glyph unicode="." horiz-adv-x="569" d="M86 120.5q0 59.5 46 105.5t105.5 46t105.5 -46t46 -105.5t-46 -105.5t-105.5 -46t-105.5 46t-46 105.5z" />
<glyph unicode="/" horiz-adv-x="681" d="M-51 -31l692 1491h195l-693 -1491h-194z" />
<glyph unicode="0" d="M106 471q0 422 176.5 697.5t436.5 275.5q186 0 292.5 -133t106.5 -410q0 -127 -23.5 -256t-73.5 -251t-120 -216t-173 -151.5t-224 -57.5q-197 0 -297.5 140.5t-100.5 361.5zM324 352q0 -305 194 -305q121 0 195 127q70 121 129 385t59 488q0 176 -47 247.5t-137 71.5 q-98 0 -179 -119t-125 -291t-66.5 -331.5t-22.5 -272.5z" />
<glyph unicode="1" d="M178 0l8 61h86q100 0 126 30t46 138l156 826q2 8 10 50t8 52q0 20 -16 20.5t-123 -57.5l-188 -100l-29 65l393 222q14 8 219 137l31 -10q-25 -102 -55 -277l-139 -774q-33 -184 -33 -240q0 -47 35 -64.5t141 -17.5h64l-11 -61q-61 0 -184 4t-184 4q-70 0 -195 -4t-166 -4 z" />
<glyph unicode="2" d="M18 0l21 86q113 100 193.5 175t190 189.5t178.5 208t119 200t50 192.5q0 100 -65.5 170.5t-169.5 70.5q-63 0 -123 -26.5t-91.5 -51t-89.5 -75.5l-41 57q244 248 476 248q154 0 250 -87t96 -237q0 -80 -34 -164t-76 -148.5t-123 -148.5t-129 -128t-141 -122.5 t-118 -101.5l-88 -78h627l76 142l63 -15l-100 -356q-31 0 -196 4t-273 4q-117 0 -296.5 -4t-185.5 -4z" />
<glyph unicode="3" d="M31 201l100 41q98 -195 277 -195q139 0 226 110.5t87 276.5q0 143 -62.5 210t-205.5 67q-37 0 -74 -6l27 83q154 0 269.5 87.5t115.5 240.5q0 94 -52.5 147.5t-156.5 53.5q-133 0 -263 -105l-34 60q215 172 430 172q121 0 219 -63.5t98 -202.5q0 -150 -97 -242t-278 -166 v-4q154 -12 242 -91t88 -229q0 -201 -177 -339t-394 -138q-182 0 -342 72z" />
<glyph unicode="4" d="M45 410l12 108l885 926h111l-156 -850h223l-35 -184h-221l-76 -410h-221l76 410h-598zM246 594h432l106 569h-4z" />
<glyph unicode="5" d="M39 203q47 29 94 43q12 -53 83 -126t175 -73q139 0 220 97.5t81 240.5q0 260 -364 459l227 569q201 -8 303 -8q94 0 287 8l-76 -217h-510l-72 -182q176 -90 311.5 -239.5t135.5 -317.5q0 -209 -151.5 -348.5t-362.5 -139.5q-190 0 -340 82z" />
<glyph unicode="6" d="M117 410q0 209 83 388t225 306t319.5 213t377.5 127l17 -68q-356 -94 -574.5 -367.5t-218.5 -637.5q0 -152 46 -238t171 -86q98 0 165 97.5t67 320.5q0 45 -9.5 88t-50.5 88t-110 45q-78 0 -156 -31l20 80q113 53 220 53q154 0 247 -92t93 -233q0 -229 -146.5 -361.5 t-361.5 -132.5q-193 0 -308.5 127.5t-115.5 313.5z" />
<glyph unicode="7" d="M213 0l778 1196h-641l-78 -147h-59q20 53 100 364q291 -8 437 -8q162 0 485 8v-31l-920 -1429z" />
<glyph unicode="8" d="M117 276q0 45 9 85t21.5 69t40 61.5t44 51t58.5 47t60.5 40t68.5 41t66 40.5q-68 68 -102.5 107.5t-69 112.5t-34.5 146q0 180 123.5 273.5t308.5 93.5q166 0 279.5 -70.5t113.5 -220.5q0 -231 -359 -385q18 -20 82 -88t87.5 -98.5t50 -92t26.5 -124.5q0 -184 -136 -290 t-331 -106q-102 0 -191 29t-152.5 101.5t-63.5 176.5zM289 279q0 -109 63.5 -170.5t171.5 -61.5q98 0 162 60.5t64 179.5q0 129 -103 243l-110 125q-123 -76 -185.5 -161.5t-62.5 -214.5zM496 1147q0 -147 202 -328q113 61 173.5 137t60.5 189q0 102 -52.5 161.5 t-156.5 59.5q-106 0 -166.5 -56.5t-60.5 -162.5z" />
<glyph unicode="9" d="M82 37q356 94 574 367.5t218 637.5q0 152 -46 238t-171 86q-98 0 -164.5 -97.5t-66.5 -320.5q0 -45 9 -88t50 -88t111 -45q78 0 156 31l-21 -80q-113 -53 -219 -53q-154 0 -247 92t-93 233q0 229 146.5 361.5t361.5 132.5q193 0 308.5 -127t115.5 -313q0 -209 -83 -388.5 t-225.5 -306.5t-319.5 -213t-378 -127z" />
<glyph unicode=":" horiz-adv-x="569" d="M86 120.5q0 59.5 46 105.5t105.5 46t105.5 -46t46 -105.5t-46 -105.5t-105.5 -46t-105.5 46t-46 105.5zM260 737.5q0 59.5 46 105.5t105.5 46t105.5 -46t46 -105.5t-46 -105.5t-105.5 -46t-105.5 46t-46 105.5z" />
<glyph unicode=";" horiz-adv-x="569" d="M-37 -260q98 12 196.5 64.5t98.5 127.5q0 39 -26.5 57.5t-59.5 22.5t-59.5 35t-26.5 90q0 57 39 96t98 39q96 0 143.5 -58t47.5 -153q0 -74 -29 -137t-74 -104t-104.5 -72t-114.5 -47t-110 -23zM260 737.5q0 59.5 46 105.5t105.5 46t105.5 -46t46 -105.5t-46 -105.5 t-105.5 -46t-105.5 46t-46 105.5z" />
<glyph unicode="&#x3c;" d="M49 446v140l1041 452v-182l-785 -340l785 -340v-182z" />
<glyph unicode="=" d="M53 215v184h1032v-184h-1032zM53 633v184h1032v-184h-1032z" />
<glyph unicode="&#x3e;" d="M49 -6v182l785 340l-785 340v182l1041 -452v-140z" />
<glyph unicode="?" horiz-adv-x="909" d="M209 120.5q0 59.5 46 105.5t105.5 46t105.5 -46t46 -105.5t-46 -105.5t-105.5 -46t-105.5 46t-46 105.5zM213 733q0 88 58.5 144.5t141.5 84t164.5 52t140 66.5t58.5 106q0 61 -39 96t-102 35q-45 0 -111.5 -33t-105.5 -33q-31 0 -52.5 24.5t-21.5 55.5q0 113 172 113 q166 0 270.5 -98.5t104.5 -262.5q0 -92 -58.5 -154.5t-140.5 -92t-165 -53t-141 -59.5t-58 -91q0 -43 34.5 -75t81.5 -32q35 0 70 16.5t61 16.5q29 0 47.5 -19.5t18.5 -47.5q0 -92 -104 -93q-129 0 -226.5 103.5t-97.5 230.5z" />
<glyph unicode="@" horiz-adv-x="1638" d="M115 684q0 342 229 559t555 217q299 0 503 -181t204 -454q0 -184 -111 -349t-289 -165q-104 0 -149 50.5t-45 103.5h-4q-23 -43 -93.5 -98.5t-152.5 -55.5q-76 0 -142.5 59.5t-66.5 207.5q0 123 44 240.5t145.5 204.5t236.5 87q121 0 147 -115h4l19 80h156l-125 -512 q-12 -57 -13 -86q0 -76 72 -76q98 0 169 137.5t71 284.5q0 199 -160 361t-420 162q-233 0 -400 -175.5t-167 -508.5q0 -233 172 -405.5t416 -172.5q223 0 426 109l24 -95q-250 -129 -448 -129q-162 0 -299.5 46t-228.5 121t-155.5 170t-94 191.5t-29.5 186.5zM725 604 q0 -182 113 -182q80 0 159.5 132t79.5 302q0 139 -98 139q-96 0 -175 -111.5t-79 -279.5z" />
<glyph unicode="A" horiz-adv-x="1402" d="M-117 0l11 61h24q76 0 118 32t91 118l578 1014q109 186 133 231l110 31l29 -17q10 -57 29.5 -173.5t29.5 -174.5l150 -856q20 -121 49 -163t119 -42h47l-10 -61q-35 0 -141.5 4t-166 4t-168 -4t-143.5 -4l10 61h52q66 0 87 14.5t21 51.5q0 25 -12 94l-41 275h-481 l-132 -254q-43 -82 -43 -125q0 -55 134 -56h43l-9 -61q-29 0 -120 4t-140 4q-43 0 -129 -4t-129 -4zM465 598h407l-96 561h-4z" />
<glyph unicode="B" horiz-adv-x="1290" d="M-16 0l10 61q102 2 140 22.5t54 109.5l166 882q33 178 33 217q0 47 -39 60.5t-139 15.5l8 62q16 0 107.5 -4.5t142.5 -4.5q29 0 131 4.5t195 4.5q80 0 151.5 -14.5t144 -47.5t115.5 -100.5t43 -161.5q0 -137 -114.5 -226t-264.5 -122v-4q340 -49 340 -314 q0 -199 -165.5 -319.5t-401.5 -120.5q-49 0 -153.5 4t-163.5 4q-21 0 -340 -8zM444 164q0 -86 107 -86q190 0 282.5 105.5t92.5 279.5q0 248 -269 248q-18 0 -37.5 -1t-44 -3t-38.5 -2l-80 -420q-13 -60 -13 -121zM551 786l113 5q145 6 223 97t78 245q0 219 -226 219 q-27 0 -84 -4z" />
<glyph unicode="C" horiz-adv-x="1517" d="M139 631q0 373 243 601t597 228q123 0 208 -23.5t134 -46t88 -22.5q35 0 43 43l49 -8q-49 -219 -67 -387l-62 8q0 164 -84 261t-246 97q-152 0 -272.5 -65.5t-195 -177t-113.5 -247.5t-39 -286q0 -236 121 -397.5t321 -161.5q170 0 295 100.5t199 268.5l57 -17 q-53 -162 -88 -348q-12 4 -39 4q-10 0 -160.5 -43t-279.5 -43q-330 0 -519.5 183.5t-189.5 478.5z" />
<glyph unicode="D" horiz-adv-x="1593" d="M-16 0l10 61q102 2 140 22.5t54 109.5l183 970q12 61 12 105q0 100 -152 100h-34l8 62q23 0 128 -4.5t173 -4.5q63 0 194 4.5t187 4.5q301 0 488.5 -179.5t187.5 -443.5q0 -203 -73 -361.5t-194.5 -254t-269 -143.5t-307.5 -48q-127 0 -268.5 4t-184.5 4q-53 0 -152 -4 t-130 -4zM446 162q0 -84 203 -84q281 0 456 212t175 531q0 246 -128 388.5t-372 142.5q-41 0 -123 -4l-200 -1094q-11 -65 -11 -92z" />
<glyph unicode="E" horiz-adv-x="1327" d="M-16 0l10 61q102 2 140 22.5t54 109.5l166 882q33 178 33 217q0 47 -39 60.5t-139 15.5l8 62q117 -2 213 -5.5t131 -3.5q39 0 262.5 3t474.5 6q-23 -131 -38 -306h-64q2 14 2 52q0 102 -60.5 139t-246.5 37q-72 0 -232 -13l-98 -536h246q106 0 151.5 40t67.5 150h59 q-6 -27 -88 -485h-55q6 68 6 92q0 78 -31.5 95.5t-177.5 17.5q-113 0 -194 -4l-80 -443q-14 -78 -14 -104q0 -37 31.5 -54.5t133.5 -17.5h156q80 0 132 3t96 18.5t69 29t51.5 51t43 68.5t46.5 96h64q-16 -59 -94 -356q-74 0 -302.5 4t-353.5 4q-102 0 -291.5 -4t-248.5 -4z " />
<glyph unicode="F" horiz-adv-x="1214" d="M-16 0l10 61q102 2 140 22.5t54 109.5l166 882q33 178 33 217q0 47 -39 60.5t-139 15.5l8 62q41 0 189.5 -4.5t230.5 -4.5q119 0 337 4.5t288 4.5q-2 -10 -18.5 -129t-20.5 -183h-62q0 150 -51 192t-197 42q-45 0 -131 -6.5t-123 -6.5l-108 -577l305 8q72 2 111 42 t61 144h55q-51 -248 -84 -485h-55q0 2 3 35t3 49q0 70 -27.5 95.5t-129.5 25.5q-176 0 -258 -4l-74 -410q-12 -70 -12 -127q0 -74 159 -74h37l-8 -61q-37 0 -153.5 4t-180.5 4q-61 0 -172.5 -4t-146.5 -4z" />
<glyph unicode="G" horiz-adv-x="1669" d="M139 637q0 252 125 441.5t329 285.5t451 96q139 0 281 -37q41 -10 78 -24.5t57.5 -22.5t34.5 -8q45 0 51 43l49 -8q-49 -240 -67 -387l-62 8q0 172 -105.5 265t-277.5 93q-205 0 -359.5 -115.5t-228 -285.5t-73.5 -358q0 -244 125 -410t321 -166q238 0 262 125l37 197 q12 61 13 88q0 49 -35 64.5t-125 15.5h-41l8 61q37 0 151.5 -4t178.5 -4q57 0 160.5 4t138.5 4l-8 -61h-39q-84 0 -110.5 -39t-45.5 -156l-41 -248q-285 -125 -504 -125q-324 0 -526.5 172t-202.5 496z" />
<glyph unicode="H" horiz-adv-x="1630" d="M-16 0l10 61q102 2 140 22.5t54 109.5l166 882q33 178 33 217q0 47 -39 60.5t-139 15.5l8 62q35 0 150.5 -4.5t177.5 -4.5q53 0 150.5 4.5t129.5 4.5l-10 -62q-59 -2 -87 -6t-51.5 -27.5t-31.5 -70.5l-86 -461h651l47 272q33 178 33 217q0 47 -38 60.5t-130 15.5l8 62 q25 0 139.5 -4.5t178.5 -4.5q55 0 156.5 4.5t128.5 4.5l-11 -62q-63 -2 -90.5 -7t-51.5 -27.5t-32 -69.5l-172 -912q-33 -176 -33 -215q0 -47 34 -60.5t130 -15.5l-8 -61q-16 0 -131 4t-178 4q-55 0 -157.5 -4t-135.5 -4l10 61q66 2 95.5 8.5t54 34t35.5 89.5l96 507h-649 l-66 -348q-33 -176 -33 -215q0 -47 34 -60.5t130 -15.5l-8 -61q-16 0 -131 4t-178 4q-53 0 -156.5 -4t-146.5 -4z" />
<glyph unicode="I" horiz-adv-x="720" d="M-16 0l10 61q102 2 140 22.5t54 109.5l166 882q33 178 33 217q0 47 -39 60.5t-139 15.5l8 62q35 0 150.5 -4.5t177.5 -4.5q53 0 156.5 4.5t142.5 4.5l-10 -62q-100 -2 -138.5 -18.5t-50.5 -85.5l-172 -912q-33 -176 -33 -215q0 -47 34 -60.5t130 -15.5l-8 -61 q-16 0 -131 4t-178 4q-53 0 -156.5 -4t-146.5 -4z" />
<glyph unicode="J" horiz-adv-x="720" d="M-301 -303q0 55 32.5 89t90.5 34q106 0 106 -94q0 -14 -2 -33t-2 -23q0 -47 49 -47q33 0 54.5 17.5t52.5 93.5t57 219l213 1118q31 164 31 221q0 45 -42 60.5t-163 15.5l8 62q29 0 156 -4.5t205 -4.5q53 0 156.5 4.5t142.5 4.5l-10 -62q-100 -2 -138.5 -18.5t-50.5 -85.5 l-172 -920q-25 -127 -50.5 -225.5t-72.5 -215t-104.5 -192.5t-146.5 -127t-197 -51q-92 0 -147.5 48t-55.5 116z" />
<glyph unicode="K" horiz-adv-x="1402" d="M-16 0l10 61q102 2 140 22.5t54 109.5l166 882q33 178 33 217q0 47 -39 60.5t-139 15.5l8 62q35 0 150.5 -4.5t177 -4.5t160 4.5t120.5 4.5l-10 -62q-88 -2 -123 -20.5t-49 -94.5l-96 -512q27 0 45 4.5t63 36t109 92.5l231 232q170 170 170 211q0 51 -110 51h-31l10 62 q29 0 122 -4.5t144 -4.5q45 0 128 4.5t108 4.5l-10 -62q-88 0 -133 -18.5t-117 -89.5l-494 -488l332 -498q86 -127 143.5 -170t124.5 -43h27l-8 -61q-20 0 -86 4t-101 4q-31 0 -85 -4t-72 -4q-23 0 -41.5 13.5t-30.5 28.5t-39 56l-364 535q-20 31 -50 31l-59 -312 q-33 -176 -33 -215q0 -47 34 -60.5t130 -15.5l-8 -61q-16 0 -131 4t-178 4q-53 0 -156.5 -4t-146.5 -4z" />
<glyph unicode="L" horiz-adv-x="1290" d="M-16 0l10 61q102 2 140 22.5t54 109.5l166 882q33 178 33 217q0 47 -39 60.5t-139 15.5l8 62q35 0 150.5 -4.5t177.5 -4.5q53 0 156.5 4.5t142.5 4.5l-10 -62q-57 0 -80 -2t-50.5 -12.5t-40 -30.5t-18.5 -59l-217 -1174h299q332 0 420 211l29 70l63 -6 q-94 -291 -113 -365q-53 0 -220 4t-259 4q-129 0 -361 -4t-302 -4z" />
<glyph unicode="M" horiz-adv-x="1933" d="M-63 0l8 61h18q109 0 139.5 42t81.5 237l226 848q-37 109 -76 144.5t-135 35.5l10 62q23 0 96.5 -4.5t112.5 -4.5q37 0 104.5 4.5t89.5 4.5l334 -1070l592 1070q20 0 88 -4.5t105 -4.5q45 0 130 4.5t111 4.5l-8 -62q-115 0 -150.5 -30.5t-44.5 -153.5l-47 -744 q-10 -147 -10 -262q0 -66 31 -91.5t108 -25.5h41l-8 -61q-37 0 -149.5 4t-174 4t-173 -4t-146.5 -4l10 61h35q98 0 131 35t41 135l70 969h-4l-471 -844q-143 -260 -185 -356h-82q-18 88 -90 309l-227 725h-4l-137 -540q-72 -281 -72 -340q0 -51 30.5 -72t100.5 -21h39 l-6 -61q-29 0 -116 4t-134 4q-45 0 -125.5 -4t-107.5 -4z" />
<glyph unicode="N" horiz-adv-x="1593" d="M-27 0l11 61h16q90 0 133 37t66 164l168 912l-41 67q-45 76 -81 101.5t-108 25.5l10 62q23 0 96.5 -4.5t112.5 -4.5q31 0 89.5 4.5t76.5 4.5q25 -47 94 -154l629 -961l125 766q20 123 21 181q0 66 -45.5 86t-131.5 20l9 62q29 0 116.5 -4.5t135.5 -4.5q41 0 123.5 4.5 t123.5 4.5l-8 -62q-117 0 -155.5 -39t-65.5 -186l-170 -942l45 -70q45 -70 105 -70l-11 -61q-18 0 -75.5 4t-88 4t-88 -4t-75.5 -4q-6 10 -55.5 96t-78.5 129l-555 844l-133 -788q-12 -74 -12 -134q0 -86 133 -86h43l-10 -61q-25 0 -108 4t-128 4q-49 0 -139 -4t-119 -4z " />
<glyph unicode="O" horiz-adv-x="1744" d="M139 631q0 373 243 601t597 228q326 0 517.5 -189.5t191.5 -471.5q0 -352 -246 -591t-590 -239q-332 0 -522.5 183.5t-190.5 478.5zM422 594q0 -102 19.5 -192.5t64.5 -173.5t133 -132t209 -49q170 0 299 113.5t193.5 294t64.5 393.5q0 82 -11.5 153.5t-41 143.5 t-76.5 123t-123 82.5t-174 31.5q-141 0 -253 -77.5t-175.5 -200.5t-96 -254t-32.5 -256z" />
<glyph unicode="P" horiz-adv-x="1214" d="M-16 0l10 61q102 2 140 22.5t54 109.5l174 935q18 92 19 140q0 55 -40 77.5t-146 22.5l10 62q29 0 120 -4.5t140 -4.5q47 0 179 4.5t200 4.5q78 0 146.5 -15.5t131 -51.5t99 -104.5t36.5 -162.5q0 -199 -152.5 -314.5t-330.5 -115.5q-111 0 -162 10l15 76q49 -8 94 -9 q121 0 187.5 110t66.5 245q0 254 -211 254q-23 0 -105 -9l-198 -1093q-12 -57 -12 -109q0 -43 35.5 -61.5t121.5 -18.5h39l-8 -61q-39 0 -164 4t-192 4q-55 0 -159.5 -4t-137.5 -4z" />
<glyph unicode="Q" horiz-adv-x="1744" d="M61 -213l11 49q348 51 637 144v4h-9q-262 35 -411.5 210t-149.5 437q0 373 243 601t597 228q326 0 517.5 -189.5t191.5 -471.5q0 -791 -1151 -932v-4q61 -14 260.5 -69.5t370.5 -100.5t210 -45q37 0 67 16.5t30 46.5q0 18 -12.5 41t-12.5 47q0 68 72 68q33 0 52 -21.5 t19 -52.5q0 -119 -137 -189.5t-299 -70.5q-72 0 -174 19.5t-167.5 37t-197 56.5t-157.5 47q-238 67 -400 94zM422 594q0 -102 19.5 -192.5t64.5 -173.5t133 -132t209 -49q170 0 299 113.5t193.5 294t64.5 393.5q0 82 -11.5 153.5t-41 143.5t-76.5 123t-123 82.5t-174 31.5 q-141 0 -253 -77.5t-175.5 -200.5t-96 -254t-32.5 -256z" />
<glyph unicode="R" horiz-adv-x="1402" d="M-16 0l10 61q102 2 140 22.5t54 109.5l174 935q18 92 19 140q0 55 -40 77.5t-146 22.5l10 62q29 0 129 -4.5t153 -4.5q51 0 159 4.5t185 4.5q76 0 143.5 -14.5t129 -47.5t98.5 -95.5t37 -150.5q0 -166 -110.5 -265t-282.5 -138q84 -88 188 -270l113 -193 q66 -111 111 -153t114 -42h33l-8 -61q-23 0 -99.5 4t-117.5 4q-31 0 -89.5 -4t-76.5 -4q-88 121 -223.5 361.5t-200.5 336.5l-53 4l-86 -479q-10 -68 -11 -80q0 -43 28 -62.5t95 -19.5h68l-8 -61q-37 0 -150 4t-174 4q-59 0 -169.5 -4t-145.5 -4zM549 766q29 -4 94 -4 q145 0 229 101.5t84 266.5q0 221 -215 222h-92z" />
<glyph unicode="S" horiz-adv-x="1101" d="M70 4q31 195 51 414l61 4q0 -156 76 -265.5t211 -109.5q115 0 192.5 56.5t77.5 185.5q0 72 -48 146.5t-117.5 142t-139 138t-118 161t-48.5 184.5q0 188 129 293.5t308 105.5q117 0 223 -39q39 -14 59 -14q27 0 35 25l49 -5q-39 -193 -59 -366l-66 -8q4 41 4 94 q0 94 -58 164.5t-185 70.5q-113 0 -173.5 -58t-60.5 -169q0 -70 78 -162t170 -174t170 -200.5t78 -235.5q0 -197 -136.5 -305.5t-347.5 -108.5q-129 0 -299 78l-80 -47z" />
<glyph unicode="T" horiz-adv-x="1366" d="M129 1075q49 213 84 398h49q4 -43 94 -43h914q135 0 160 43h55q-37 -240 -47 -398h-66q4 66 4 103q0 102 -62.5 131.5t-209.5 29.5h-139l-205 -1112q-10 -51 -10 -94q0 -72 112 -72h74l-8 -61q-37 0 -150.5 4t-175.5 4q-111 0 -328 -8l11 61h49q51 0 79.5 7.5t46 35 t25 54t19.5 92.5l198 1089h-180q-135 0 -212 -52t-115 -212h-66z" />
<glyph unicode="U" horiz-adv-x="1478" d="M176 1368l8 62q35 0 151 -4.5t177 -4.5q53 0 156.5 4.5t142.5 4.5l-10 -62q-100 -2 -138 -18.5t-51 -85.5l-143 -799q-12 -70 -12 -133q0 -131 76.5 -195.5t201.5 -64.5q223 0 325.5 100t135.5 324l94 618q16 98 17 160q0 94 -172 94l8 62q27 0 111.5 -4.5t129.5 -4.5 q47 0 137.5 4.5t116.5 4.5l-8 -62q-111 0 -150.5 -34t-58.5 -134l-155 -827q-76 -403 -553 -404q-221 0 -365.5 93.5t-144.5 295.5q0 92 24 228l95 489q33 166 32 217q0 47 -39 60.5t-139 15.5z" />
<glyph unicode="V" horiz-adv-x="1402" d="M66 1368l10 62q39 0 158.5 -4.5t185.5 -4.5q51 0 147.5 4.5t124.5 4.5l-8 -62h-25q-80 0 -108.5 -16.5t-28.5 -53.5q0 -39 35 -182l191 -784h4l405 764q78 150 78 209q0 63 -150 63h-28l10 62q33 0 135.5 -4.5t157.5 -4.5q43 0 121 4.5t104 4.5l-8 -62h-31 q-20 0 -36.5 -1t-32 -7t-24.5 -9t-21.5 -15.5t-17.5 -16.5t-17.5 -22.5t-15.5 -22.5t-15 -27.5t-16 -29.5l-697 -1248h-80l-292 1217q-29 117 -60 149.5t-133 32.5h-22z" />
<glyph unicode="W" horiz-adv-x="2009" d="M66 1368l10 62q35 0 138 -4.5t161 -4.5q51 0 145 4.5t125 4.5l-10 -62q-43 0 -65.5 -2t-44 -15.5t-21.5 -41.5q0 -20 20 -107l232 -907l248 385l-136 516q-31 117 -54 144.5t-103 27.5l10 62q57 0 240.5 -4.5t283.5 -4.5q78 0 222.5 4.5t189.5 4.5l-10 -62 q-55 0 -92 -18.5t-53.5 -40t-51.5 -78.5l-236 -379l148 -543l438 805q76 137 76 186q0 68 -145 68l8 62q27 0 109.5 -4.5t127.5 -4.5t128 4.5t108 4.5l-10 -62q-92 0 -123 -25.5t-107 -156.5l-698 -1217h-76l-160 598l-372 -598h-84l-297 1176q-39 156 -70.5 189.5 t-148.5 33.5zM1096 1329q0 -14 24 -117l60 -235h2l141 242q37 68 37 98q0 16 -4 25.5t-19.5 17.5t-44.5 8h-143q-53 0 -53 -39z" />
<glyph unicode="X" horiz-adv-x="1366" d="M-84 0l10 61q70 0 126.5 26t87 55.5t87.5 95.5l396 444l-291 563q-39 76 -73 99.5t-101 23.5h-35l10 62q35 0 145.5 -4.5t170 -4.5t170 4.5t145.5 4.5l-8 -62q-80 0 -118 -10t-38 -43q0 -23 41 -105l166 -327l276 329q72 86 72 107q0 49 -149 49l8 62q31 0 121 -4.5 t141 -4.5q86 0 254 9l-10 -62q-80 0 -132.5 -24.5t-111.5 -90.5l-424 -460l332 -641q16 -29 28.5 -45.5t47 -31t86.5 -14.5h36l-10 -61q-35 0 -146.5 4t-173 4t-174 -4t-149.5 -4l10 61h39q121 0 121 48q0 23 -47 116l-184 367l-312 -383q-53 -66 -53 -94q0 -53 119 -54h41 l-10 -61q-29 0 -125.5 4t-147.5 4t-143 -4t-121 -4z" />
<glyph unicode="Y" horiz-adv-x="1290" d="M80 1368l10 62q39 0 154.5 -4.5t179.5 -4.5q53 0 152.5 4.5t130.5 4.5l-9 -62q-86 0 -119.5 -12.5t-33.5 -48.5q0 -49 53 -191l154 -418l309 492q49 80 49 115q0 63 -152 63l9 62q27 0 113.5 -4.5t134 -4.5t133.5 4.5t112 4.5l-8 -62q-84 0 -131 -29.5t-102 -115.5 l-426 -648l-54 -292q-20 -111 -20 -162q0 -59 123 -60h61l-10 -61q-37 0 -153.5 4t-180.5 4q-57 0 -163.5 -4t-139.5 -4l10 61h39q94 0 122 33t46 135l66 338l-220 578q-57 152 -97 187.5t-142 35.5z" />
<glyph unicode="Z" horiz-adv-x="1402" d="M29 12v6q0 8 24 39l991 1282h-391q-156 0 -241.5 -55t-128.5 -194h-70q70 240 94 340q61 0 255 -4.5t298.5 -4.5t298 4.5t254.5 4.5v-25l-1022 -1303h467q178 0 265 65.5t143 217.5h63q-57 -209 -98 -385q-43 0 -248 4t-334 4q-141 0 -339.5 -4t-272.5 -4q-8 0 -8 12z " />
<glyph unicode="[" horiz-adv-x="681" d="M53 -371q143 643 342 1831q111 -4 166 -4q72 0 191 4l-11 -61h-77q-63 0 -97.5 -21.5t-44.5 -81.5l-264 -1460q-16 -98 -16 -100q0 -35 39 -41q18 -2 163 -8l-8 -58q-115 4 -184 4q-68 0 -199 -4z" />
<glyph unicode="\" horiz-adv-x="681" d="M25 1460h190l528 -1491h-190z" />
<glyph unicode="]" horiz-adv-x="681" d="M-70 -371l11 62h77q63 0 97.5 21.5t44.5 80.5l264 1460q16 98 16 101q0 35 -39 41q-18 2 -163 8l8 57q115 -4 184 -4q68 0 199 4q-143 -643 -342 -1831q-111 4 -166 4q-72 0 -191 -4z" />
<glyph unicode="^" d="M174 666l365 747h163l365 -747h-182l-264 542l-265 -542h-182z" />
<glyph unicode="_" horiz-adv-x="1024" d="M0 -154h1024v-102h-1024v102z" />
<glyph unicode="`" horiz-adv-x="569" d="M180 1430q0 37 26.5 57t63.5 20q55 0 101 -63l225 -297h-82l-278 196q-56 40 -56 87z" />
<glyph unicode="a" horiz-adv-x="1099" d="M37 143q0 137 73.5 288t179 262.5t224.5 184t207 72.5q43 0 69.5 -17.5t53.5 -62.5l41 97q8 20 41 20q113 0 112 -26q0 -2 -51 -166l-143 -473q-27 -86 -27 -115q0 -33 35 -33q57 0 174 137l43 -43q-6 -8 -47 -51t-63.5 -66.5t-65.5 -63.5t-75 -61.5t-69.5 -39 t-68.5 -17.5q-41 0 -66.5 24.5t-25.5 67.5q0 76 88 312l-4 4q-80 -139 -222.5 -273.5t-267.5 -134.5q-76 0 -110.5 52t-34.5 122zM242 299q0 -145 86 -145q84 0 187 108.5t171 243.5t68 217q0 113 -103 113q-100 0 -198.5 -99.5t-154.5 -223.5t-56 -214z" />
<glyph unicode="b" d="M80 203q0 61 59 299l228 887l-129 67l10 37q236 18 362 72l25 -23l-242 -854l4 -4q190 266 428 266q125 0 187.5 -73.5t62.5 -196.5q0 -174 -108.5 -341t-274.5 -268.5t-327 -101.5q-285 1 -285 234zM285 197q0 -150 118 -150q104 0 209 124t163.5 270.5t58.5 240.5 q0 154 -117 154q-104 0 -206.5 -109t-164 -257t-61.5 -273z" />
<glyph unicode="c" horiz-adv-x="909" d="M57 262q0 141 73 273.5t182.5 220.5t233.5 141t228 53q63 0 107.5 -27.5t44.5 -88.5q0 -49 -31 -81t-80 -32q-68 0 -131 51t-98 51q-66 0 -134.5 -101t-110.5 -230.5t-42 -219.5q0 -76 46 -119.5t118 -43.5q154 0 373 202l43 -55q-115 -115 -254.5 -201t-264.5 -86 q-152 0 -227.5 80t-75.5 213z" />
<glyph unicode="d" horiz-adv-x="1175" d="M57 238q0 139 96.5 307t252 286.5t303.5 118.5q78 0 149 -37l98 480l-135 63l10 37q190 16 363 72l23 -15l-295 -1259q-14 -72 -15 -84q0 -33 31 -33q14 0 42 18.5t50.5 40t52 49t35.5 33.5l37 -47q-8 -8 -41 -46t-50 -56.5t-51 -54t-60.5 -56t-58.5 -43t-62.5 -33 t-59.5 -10.5q-94 0 -94 99q0 51 43 215h-4q-72 -123 -195 -218.5t-250 -95.5q-104 0 -159.5 73t-55.5 196zM287 260q0 -70 23.5 -104.5t84.5 -34.5q106 0 205.5 108.5t154 250t54.5 255.5q0 74 -23.5 105.5t-91.5 31.5q-104 0 -202.5 -115.5t-151.5 -256t-53 -240.5z" />
<glyph unicode="e" horiz-adv-x="909" d="M57 283q0 246 192.5 456.5t426.5 210.5q94 0 155.5 -43t61.5 -133q0 -88 -62.5 -157.5t-162 -111.5t-189.5 -65.5t-180 -36.5q-12 -49 -12 -112q0 -76 42 -129t117 -53q147 0 338 159l39 -49q-82 -76 -141 -121t-157.5 -87t-198.5 -42q-133 0 -201 91.5t-68 222.5z M317 481q121 4 240 94.5t119 217.5q0 80 -76 79q-84 0 -171 -138t-112 -253z" />
<glyph unicode="f" horiz-adv-x="681" d="M18 -471l281 1288h-199l23 103h203q45 291 212 468t361 177q41 0 66.5 -22.5t25.5 -59.5q0 -135 -76 -135q-29 0 -86 32q-53 33 -102 33q-33 0 -55.5 -18.5t-36.5 -61.5t-21.5 -72.5t-17.5 -91.5l-43 -249h235l-22 -103h-240q-25 -123 -54.5 -247t-70.5 -268t-67.5 -232 t-80.5 -266.5t-73 -239.5l-139 -51z" />
<glyph unicode="g" horiz-adv-x="1024" d="M-72 -256q0 37 15.5 69.5t33 54t58.5 47.5t64.5 37t77.5 36.5t75 34.5q-119 43 -119 114q0 45 25.5 77t82 70t66.5 46q-174 68 -174 252q0 172 122 270t298 98q78 0 180 -32q113 -35 160 -35q35 0 71.5 13t51.5 13q68 0 67 -69q0 -76 -67 -76q-29 0 -77 28.5t-91 28.5 q57 -66 57 -155q0 -166 -118.5 -264.5t-290.5 -98.5q-43 0 -121 8q-12 -6 -28.5 -27.5t-16.5 -39.5q0 -16 20.5 -31.5t98.5 -48.5l249 -109q180 -78 181 -217q0 -94 -54.5 -161.5t-141.5 -101.5t-172 -48t-171 -14q-57 0 -122.5 11t-133.5 35.5t-112 73t-44 111.5zM113 -227 q0 -94 91 -138.5t181 -44.5q109 0 199 39t90 125q0 31 -10.5 53.5t-47 45t-56 32t-87.5 39.5l-158 70l-67 -43q-39 -23 -61.5 -40t-48 -56t-25.5 -82zM350 522q0 -63 33 -102t90 -39q102 0 158.5 111.5t56.5 224.5q0 76 -25.5 115.5t-103.5 39.5q-74 0 -124 -70.5 t-67.5 -145.5t-17.5 -134z" />
<glyph unicode="h" d="M66 41q0 14 25.5 119.5t67.5 276.5t62 255l166 699l-123 59l12 43q223 20 357 70l24 -21l-282 -1050h4q326 459 555 458q86 0 118 -45q30 -42 29 -131v-12q-2 -133 -59 -279.5t-135 -254t-162 -178t-141 -70.5q-33 0 -50.5 14t-17.5 29q0 12 16.5 74.5t30.5 95.5l162 -17 q127 313 127 526q0 33 -2 50.5t-14.5 32t-34.5 14.5q-92 0 -261 -196.5t-225 -373.5q-51 -170 -55 -194q-6 -45 -88 -45q-53 0 -75.5 6t-25.5 13t-5 32z" />
<glyph unicode="i" horiz-adv-x="645" d="M57 668q244 283 381 282q55 0 84 -22.5t29 -85.5q0 -55 -105.5 -339t-105.5 -323q0 -27 25 -26q12 0 32.5 11t44 32.5t40 37t38 38t23.5 24.5l39 -45q-121 -147 -210 -215t-182 -68q-41 0 -66.5 27t-25.5 70q0 53 93.5 327.5t93.5 304.5q0 47 -31 47q-23 0 -50.5 -20 t-63.5 -60t-42 -47zM375 1333q0 51 38 89t89 38t89 -38t38 -89t-38 -89t-89 -38t-89 38t-38 89z" />
<glyph unicode="j" horiz-adv-x="606" d="M-106 -412q41 23 66.5 51.5t66.5 119.5t84 249l168 613q23 80 22 90q0 35 -31 34q-20 0 -45.5 -16t-44 -33.5t-44 -44t-32.5 -33.5l-47 50q2 2 23.5 24.5t31 32.5t33.5 35l39 39q14 14 40 36.5t44.5 36t42 31t42 26.5t39 15t36.5 6q55 0 85 -24.5t30 -96.5 q0 -59 -76 -319l-156 -522q-59 -201 -139 -299.5t-260 -155.5zM375 1333q0 51 38 89t89 38t89 -38t38 -89t-38 -89t-89 -38t-89 38t-38 89z" />
<glyph unicode="k" horiz-adv-x="1099" d="M57 41q0 14 27 120.5t71 281.5t66 272l162 674l-129 67l10 37q236 18 363 72l24 -23l-229 -866h4q238 274 430 274q74 0 120 -41t46 -114q0 -90 -86 -176.5t-183.5 -135.5t-191.5 -77q72 -37 152 -123t142.5 -148.5t113.5 -62.5q47 0 80 18l-15 -70q-88 -51 -205 -51 q-92 0 -168.5 52.5t-119.5 118t-97.5 140t-101.5 103.5l-84 -356q-8 -37 -86 -37q-72 0 -93.5 10t-21.5 41zM348 420q57 6 130 26.5t153 55.5t133 91t53 122q0 84 -92 84q-96 0 -220 -125t-157 -254z" />
<glyph unicode="l" horiz-adv-x="606" d="M94 84q0 43 53 268l252 1037l-129 67l11 37q166 6 362 72l25 -23q-78 -264 -129 -471l-197 -780q-18 -78 -18 -98q0 -39 30 -39q51 0 189 149l39 -41q-156 -172 -235 -232.5t-150 -60.5q-103 0 -103 115z" />
<glyph unicode="m" horiz-adv-x="1705" d="M57 657q6 6 45 50.5t59.5 67t61.5 61t71 59t66.5 38t67.5 17.5q96 0 96 -102q0 -35 -25.5 -115t-59 -171t-42.5 -120l4 -4q94 154 270.5 333t289.5 179q96 0 96 -102q0 -35 -25.5 -115t-59.5 -171t-42 -120l4 -4q55 90 148.5 202t218 211t212.5 99q55 0 84 -22.5 t29 -85.5q0 -55 -105.5 -339t-105.5 -323q0 -27 25 -26q12 0 32.5 11t44 32.5t40 37t38 38t23.5 24.5l39 -45q-121 -147 -210 -215t-181 -68q-41 0 -66.5 27t-25.5 70q0 55 93 325.5t93 290.5q0 51 -43 51q-74 0 -198 -148.5t-193 -295.5q-29 -61 -55.5 -123t-37 -89.5 t-23.5 -51t-26.5 -29.5t-35.5 -6q-82 0 -111 9t-29 32q0 27 33 116l156 449q18 55 18 96t-37 41q-72 0 -196.5 -155.5t-192.5 -276.5q-33 -59 -58.5 -117.5t-36.5 -90.5t-23.5 -57.5t-26 -35.5t-33.5 -10q-82 0 -111.5 6t-29.5 24q0 12 28 105l158 479q27 92 27 101 q0 29 -29 28q-31 0 -158 -117z" />
<glyph unicode="n" horiz-adv-x="1175" d="M57 657q6 6 45 50.5t59.5 67t61.5 61t71 59t66.5 38t67.5 17.5q96 0 96 -102q0 -35 -25.5 -115t-59 -171t-42.5 -120l4 -4q96 158 275.5 335t306.5 177q55 0 84 -22.5t29 -85.5q0 -55 -105.5 -339t-105.5 -323q0 -27 24 -26q12 0 33 11t44.5 32.5t39.5 37t37.5 38 t23.5 24.5l39 -45q-121 -147 -210 -215t-181 -68q-41 0 -66.5 27t-25.5 70q0 55 93 325.5t93 290.5q0 51 -51 51q-72 0 -196.5 -155.5t-192.5 -276.5q-33 -59 -58.5 -117.5t-36.5 -90.5t-23.5 -57.5t-26 -35.5t-33.5 -10q-82 0 -111.5 6t-29.5 24q0 12 28 105l158 479 q27 92 27 101q0 29 -29 28q-31 0 -158 -117z" />
<glyph unicode="o" horiz-adv-x="1099" d="M78 365q0 246 167 415.5t392 169.5q195 0 297 -110.5t102 -284.5q0 -233 -157.5 -409.5t-399.5 -176.5q-182 0 -291.5 117t-109.5 279zM307 281q0 -233 164 -234q88 0 156.5 68.5t105.5 169t55.5 197t18.5 171.5q0 98 -34 158.5t-130 60.5q-86 0 -153.5 -64.5 t-105.5 -160.5t-57.5 -192t-19.5 -174z" />
<glyph unicode="p" d="M-37 -471q57 242 169 688.5t140 562.5q-98 -23 -239 -86l14 76q127 59 248 92l63 262l226 62l-72 -271q123 35 240 35q324 0 323 -256q0 -119 -52 -248t-137 -234.5t-204 -174t-240 -68.5q-92 0 -153 49l-90 -368l161 -35l-8 -49q-342 -49 -364 -53zM338 154 q0 -106 121 -107q102 0 196.5 126t142.5 275.5t48 249.5q0 162 -182 162q-90 0 -166 -16l-127 -512q-33 -137 -33 -178z" />
<glyph unicode="q" d="M57 193q0 150 106.5 328.5t271.5 303.5t315 125q119 0 165 -96l41 123l166 55l-356 -1419q33 -12 141 -31l-6 -49q-29 0 -112.5 4t-131.5 4q-92 0 -280 -8l10 49q88 6 168 31l178 672h-4q-27 -39 -65.5 -84t-100 -102.5t-140.5 -93.5t-155 -36q-211 1 -211 224zM287 256 q0 -135 100 -135q152 0 295 208t143 386q0 68 -33.5 106.5t-99.5 38.5q-100 0 -197.5 -109.5t-152.5 -249t-55 -245.5z" />
<glyph unicode="r" horiz-adv-x="796" d="M57 662q76 98 183.5 193t185.5 95q86 0 86 -92q0 -47 -16.5 -112.5t-42 -147.5t-33.5 -109l4 -4q16 23 57 93.5t77 126t83 116t96 95t97 34.5q86 0 86 -80q0 -55 -27 -102t-74 -47q-20 0 -48 6t-44 6q-74 0 -177.5 -159.5t-191.5 -383.5q-14 -37 -32.5 -99t-22.5 -71 q-20 -31 -108 -30q-94 0 -95 37q0 35 41 151l101 332q41 164 41 178q0 45 -29 45q-57 0 -160 -117z" />
<glyph unicode="s" horiz-adv-x="796" d="M12 141q0 47 11.5 75t54.5 75h39q10 -68 71.5 -109t114.5 -51t103 -10q156 0 155 82q0 31 -21.5 57.5t-103.5 79.5l-178 117q-106 70 -106 172q0 55 35.5 110.5t86 94t85 60t51.5 30.5q53 27 137 26q43 0 73.5 -4t64.5 -16t52.5 -40t18.5 -71q0 -53 -49 -125h-48 q-39 117 -194 117q-158 0 -158 -80q0 -59 125 -141l139 -88q72 -47 100.5 -85t28.5 -110q0 -109 -120.5 -223.5t-286.5 -114.5q-111 0 -196 45t-85 127z" />
<glyph unicode="t" horiz-adv-x="681" d="M94 817l27 103h215l88 290h213l-86 -290h240l-25 -103h-244l-141 -471q-33 -111 -33 -135q0 -37 43 -37q33 0 68 22.5t84 71.5t57 56l37 -43q-8 -8 -48 -51.5t-64.5 -69t-69.5 -66.5t-80 -64.5t-77 -42t-79 -18.5q-113 0 -113 117q0 61 70 299l129 432h-211z" />
<glyph unicode="u" horiz-adv-x="1175" d="M57 657q2 4 25.5 30t33 36t35 36.5t40 40t40 37t43 37t42 30t44 25.5t41 15t39.5 6q96 0 97 -102q0 -84 -96.5 -344t-96.5 -293q0 -37 33 -37q84 0 354 397q57 84 105.5 184.5t73 147.5t42.5 47q8 0 52 -16l102 -45l-191 -572q-31 -88 -30 -122q0 -41 24 -41q12 0 33 11 t44.5 32.5t39.5 37t37.5 38t23.5 24.5l39 -45q-131 -141 -216 -212t-154 -71q-49 0 -75 29t-26 65q0 72 152 504l-4 4q-6 -10 -46 -72.5t-61.5 -94t-67.5 -96t-78 -102.5t-81 -89t-89 -79t-88 -48.5t-91 -20.5q-98 0 -99 113q0 57 90.5 330.5t90.5 292.5q0 29 -29 28 q-31 0 -158 -117z" />
<glyph unicode="v" horiz-adv-x="1024" d="M31 664q2 2 37.5 39.5t51 53t53.5 52.5t63.5 55.5t59.5 42t64.5 33.5t59.5 10q92 0 92 -106q0 -66 -88 -328t-88 -305q0 -90 96 -90q106 0 199.5 95t141.5 218t48 225q0 29 -12 84.5t-12 81.5q0 55 32.5 90t88.5 35q57 0 88.5 -36.5t31.5 -96.5q0 -98 -67.5 -243.5 t-169 -278.5t-234.5 -229.5t-247.5 -96.5t-157.5 45t-43 125q0 92 69.5 321.5t69.5 237.5q0 35 -29 35q-25 0 -52 -21.5t-60 -54t-43 -41.5z" />
<glyph unicode="w" horiz-adv-x="1593" d="M31 664q2 2 37.5 39.5t51 53t53.5 52.5t63.5 55.5t59.5 42t64.5 33.5t59.5 10q92 0 92 -106q0 -53 -84 -306t-84 -335q0 -49 39 -49q66 0 184.5 105.5t186.5 203.5q4 14 16 65.5t21.5 87t27 91t35.5 93.5t43 74.5t55.5 56t65.5 19.5q45 0 68.5 -30.5t23.5 -73.5 t-17.5 -87t-33 -66.5t-51.5 -76.5q-29 -39 -64 -186t-35 -219q0 -90 95 -90q137 0 256.5 179t119.5 343q0 27 -4 91.5t-4 94.5q0 55 30 88t79 33q57 0 89 -30.5t32 -90.5q0 -96 -67 -241.5t-168 -282.5t-242.5 -236.5t-272.5 -99.5q-76 0 -118 43t-42 119t33 195l-4 4 q-90 -121 -236.5 -241t-255.5 -120q-53 0 -83.5 40t-30.5 116q0 80 71.5 319.5t71.5 253.5q0 35 -29 35q-25 0 -52 -21.5t-60 -54t-43 -41.5z" />
<glyph unicode="x" d="M-4 94q0 90 94 150l41 -19q-8 -33 -8 -37q0 -20 16.5 -37.5t46.5 -17.5q16 0 35 7t37 21.5t33.5 27t36 36t31 34.5t30 35.5t23.5 29.5l71 86q-8 31 -21 82t-20.5 77.5t-18.5 64.5t-21.5 57.5t-25 39t-30.5 27.5t-37 8q-29 0 -53.5 -16.5t-35.5 -32t-28.5 -49t-23.5 -43.5 l-53 30q25 57 47 99.5t58 91.5t83 76.5t103 27.5q47 0 82.5 -22.5t58 -64.5t36 -78.5t29 -92t23.5 -78.5q76 123 177 229.5t198 106.5q51 0 79.5 -29.5t28.5 -80.5q0 -82 -110 -152l-35 12q-4 66 -66 66q-45 0 -132 -87t-118 -142l86 -254q43 -129 97 -129q29 0 56.5 20.5 t43.5 42t35.5 51t23.5 35.5l50 -39q-6 -10 -28 -47t-31 -51t-32.5 -47t-38 -48.5t-39 -39t-46 -34.5t-50 -19.5t-57.5 -8.5q-41 0 -73.5 27t-56.5 74t-38 88t-30.5 98t-22.5 74q-20 -25 -77.5 -99.5t-98.5 -124t-101.5 -93.5t-111.5 -44q-121 0 -121 125z" />
<glyph unicode="y" horiz-adv-x="1062" d="M-37 -369q0 59 23.5 83t52.5 24q27 0 73 -10.5t85 -10.5q45 0 89 25t65.5 46.5t58 68.5t41.5 53q-16 211 -39 328q-98 528 -244 528q-70 0 -70 -100q0 -4 6 -78l-30 -13l-49 29q0 61 11 116.5t35.5 110t73 87t115.5 32.5q61 0 109.5 -30.5t80 -76.5t57 -119t39 -134.5 t27.5 -147.5l54 -309h4l24 37q23 37 29 47t29.5 49t34 57.5t29 54.5t27.5 59.5t20.5 54t16.5 55t5 45.5q0 47 -24.5 113.5t-24.5 101.5q0 66 31.5 104.5t93.5 38.5q117 0 116 -137q0 -172 -206.5 -510t-540.5 -672q-55 -55 -101.5 -76.5t-111.5 -21.5q-115 0 -115 98z" />
<glyph unicode="z" horiz-adv-x="948" d="M20 31q0 55 58 108l594 574l-4 4q-31 -12 -84 -12q-72 0 -171.5 47t-125.5 47q-31 0 -48.5 -18.5t-17.5 -43.5q0 -14 8.5 -34.5t8.5 -34.5q0 -51 -64 -52q-51 0 -51 62q0 47 36 95t134 132q53 45 113 45q70 0 202.5 -65.5t167.5 -65.5t35 39q0 6 -2 26.5t-2 35.5 q0 20 16.5 35.5t42.5 15.5q55 0 56 -49q0 -27 -15.5 -54.5t-32 -45t-55.5 -56.5l-532 -526h20q61 0 145.5 -55.5t159 -110t111.5 -54.5q29 0 46 19.5t17 42.5q0 16 -31.5 44t-31.5 52q0 23 16.5 37t38.5 14q41 0 61.5 -30.5t20.5 -73.5q0 -88 -80 -178t-164 -90 q-61 0 -124.5 42t-109.5 92t-101.5 92t-100.5 42q-51 0 -51 -39q0 -4 3 -22.5t3 -32.5q0 -25 -16.5 -43.5t-42.5 -18.5q-56 1 -56 62z" />
<glyph unicode="{" horiz-adv-x="681" d="M100 545q96 29 139.5 82t63.5 159l72 377q33 180 122 238.5t275 58.5l-8 -37q-113 -14 -164 -72.5t-74 -174.5l-67 -359q-20 -119 -61.5 -181.5t-127.5 -88.5v-4q49 -18 77 -57.5t28 -84.5q0 -47 -17 -129l-67 -358q-10 -51 -10 -115q0 -113 149 -133l-6 -37 q-156 0 -227.5 37t-71.5 144q0 49 12 116l72 377q10 51 10 107q0 96 -119 135z" />
<glyph unicode="|" horiz-adv-x="454" d="M174 -31v1596h184v-1596h-184z" />
<glyph unicode="}" horiz-adv-x="681" d="M-90 -371l8 37q113 14 164 72.5t74 175.5l67 358q20 119 61.5 181.5t127.5 89.5v4q-49 18 -77 57t-28 84q0 47 17 129l67 359q10 51 10 114q0 113 -149 133l6 37q156 0 227.5 -37t71.5 -143q0 -49 -12 -117l-72 -377q-10 -51 -10 -106q0 -96 119 -135q-96 -29 -139.5 -82 t-63.5 -160l-72 -377q-33 -180 -122 -238.5t-275 -58.5z" />
<glyph unicode="~" d="M96 508q41 55 67.5 86t78 60.5t110.5 29.5q78 0 221 -66q12 -6 53.5 -25.5t62 -28.5t52 -18t56.5 -9q100 0 172 155l73 -164q-41 -55 -67.5 -85.5t-77.5 -60.5t-111 -30q-78 0 -221 66q-12 6 -53 25.5t-61.5 28.5t-52 18.5t-56.5 9.5q-100 0 -172 -156z" />
<glyph unicode="&#xa1;" horiz-adv-x="681" d="M6 -279q0 59 66.5 226.5t152.5 360t107 253.5l51 -8q-6 -70 -16.5 -196t-18.5 -229t-14 -196q-4 -55 -7 -85.5t-15.5 -90t-30 -93.5t-52 -61.5t-82.5 -27.5q-141 0 -141 147zM256 856.5q0 61.5 45 106.5t106.5 45t106.5 -45t45 -106.5t-45 -106.5t-106.5 -45t-106.5 45 t-45 106.5z" />
<glyph unicode="&#xa2;" d="M135 262q0 168 101.5 319.5t241.5 240.5t280 116l104 283h76l-100 -271h14q63 0 107.5 -27.5t44.5 -88.5q0 -49 -31 -81t-80 -32q-68 0 -125 45l-244 -657h17q152 -2 372 202l43 -55q-264 -264 -483 -287l-108 -286h-76l108 286q-131 10 -196.5 90t-65.5 203zM377 272 q0 -102 80 -145l254 682q-23 14 -47 14q-66 0 -134.5 -101t-110.5 -230.5t-42 -219.5z" />
<glyph unicode="&#xa3;" d="M51 43q0 74 71 138.5t163 84.5q39 92 62.5 247t25.5 243h-238l8 102h240q4 45 17.5 104.5t38 143.5t67.5 162t100.5 146.5t143.5 109.5t186 41q229 0 229 -158q0 -57 -31.5 -87t-82.5 -30q-49 0 -76 6q6 31 6 58q0 53 -26.5 87t-80.5 34q-39 0 -70.5 -16.5t-54 -57.5 t-37 -68.5t-27.5 -96.5t-16 -88.5t-16 -94.5l-30 -195h340l-15 -102h-340q-49 -256 -215 -482q43 6 86 7q94 0 180 -43t153 -86t112 -43q33 0 56.5 22.5t23.5 58.5q0 78 -105 82q-6 18 -6 50q0 33 22.5 61.5t65.5 28.5q66 0 101.5 -38t35.5 -104q0 -121 -101.5 -211 t-228.5 -90q-80 0 -164.5 49.5t-161.5 102.5t-134 57q-12 -10 -54.5 -65.5t-85.5 -89t-92 -33.5q-45 0 -45 53z" />
<glyph unicode="&#xa4;" d="M88 303l117 113q-94 127 -94 299q0 168 94 299l-117 114l113 115l121 -119q127 96 296 99q172 4 297 -99l121 119l109 -115l-119 -114q100 -131 100 -299q0 -80 -29.5 -165t-70.5 -134l119 -113l-109 -113l-121 121q-117 -104 -297 -104q-188 0 -296 104l-125 -121z M295 715q0 -133 95 -228.5t228.5 -95.5t228.5 95.5t95 228.5t-95 228t-228.5 95t-228.5 -95t-95 -228z" />
<glyph unicode="&#xa5;" d="M94 1368l10 62q20 0 129 -4.5t168 -4.5q49 0 140.5 4.5t120.5 4.5l-7 -62q-82 0 -113.5 -9t-31.5 -42q0 -43 57 -187l127 -331l242 377q61 100 61 137q0 35 -32.5 45t-106.5 10l8 62q25 0 106 -4.5t124 -4.5t122.5 4.5t104.5 4.5l-6 -62q-90 0 -131 -30.5t-101 -118.5 l-290 -420h305l-23 -103h-344l-31 -161h345l-23 -103h-342l-27 -149q-23 -123 -22 -162q0 -59 96 -60h76l-12 -61q-33 0 -140.5 4t-163.5 4q-49 0 -144 -4t-130 -4l12 61h37q86 0 111.5 33t46.5 135l37 203h-342l24 103h340l31 161h-340l21 103h284l-137 331 q-66 164 -101.5 201t-144.5 37z" />
<glyph unicode="&#xa6;" horiz-adv-x="454" d="M174 -31v623h184v-623h-184zM174 942v623h184v-623h-184z" />
<glyph unicode="&#xa7;" d="M74 -256q0 35 31.5 65.5t66.5 30.5t60.5 -24.5t40 -54t39 -54t55.5 -24.5q96 0 140 87t44 193q0 98 -45 224t-98.5 229.5t-98.5 233.5t-45 233q0 215 181.5 396t392.5 181q90 0 158.5 -39t68.5 -102q0 -37 -24.5 -63.5t-77.5 -26.5q-35 0 -58.5 23.5t-34 53t-34 53 t-60.5 23.5q-145 0 -145 -227q0 -127 71.5 -301t143.5 -346t72 -289q0 -250 -196 -432t-437 -182q-86 0 -148.5 39t-62.5 100zM391 905q0 -109 68.5 -272.5t137.5 -326.5t69 -273q0 -27 -3.5 -51.5t-4.5 -39t-10 -39t-10 -28.5t-14.5 -33.5t-13.5 -31.5h4q78 55 127.5 163.5 t49.5 206.5q0 127 -69 290t-137.5 324.5t-68.5 284.5q0 84 41 193h-4q-68 -51 -115 -153.5t-47 -213.5z" />
<glyph unicode="&#xa8;" horiz-adv-x="569" d="M133 1311q0 47 34 80.5t81 33.5t80.5 -33.5t33.5 -80.5t-33.5 -81t-80.5 -34t-81 34t-34 81zM565 1311q0 47 34 80.5t81 33.5t81 -33.5t34 -80.5t-34 -81t-81 -34t-81 34t-34 81z" />
<glyph unicode="&#xa9;" horiz-adv-x="1638" d="M115 715q0 313 214 529t531.5 216t531.5 -216t214 -529q0 -315 -214 -530.5t-531.5 -215.5t-531.5 215.5t-214 530.5zM270 714.5q0 -241.5 171 -423.5t419 -182q250 0 420 182t170 423.5t-170 424t-420 182.5q-248 0 -419 -182.5t-171 -424zM436 721q0 72 26.5 141.5 t80 133t152 102.5t225.5 39q84 0 177 -23.5t93 -56.5v-154h-49q-39 184 -223 184q-129 0 -197 -96t-68 -260q0 -389 271 -389q182 0 254 190h49l-35 -155q-8 -35 -98 -59.5t-191 -24.5q-213 0 -340 108.5t-127 319.5z" />
<glyph unicode="&#xaa;" horiz-adv-x="714" d="M94 961q0 141 158 302.5t287 161.5q68 0 104 -43l16 31q16 31 46 31q72 0 71 -14l-35 -99l-98 -274q-18 -55 -18 -66q0 -20 22 -20q39 0 115 80l26 -25q-2 -2 -19 -18.5t-24.5 -23.5t-26 -24.5t-29.5 -25.5t-29.5 -22.5t-33 -22.5t-30.5 -16.5t-31.5 -12.5t-29.5 -4 q-66 0 -66 59q0 35 66 170h-5q-49 -80 -146 -154.5t-189 -74.5q-51 0 -76 30t-25 75zM246 1051q0 -68 49 -68q80 0 177 115.5t97 177.5q0 59 -67 59q-84 0 -170 -106t-86 -178z" />
<glyph unicode="&#xab;" horiz-adv-x="1062" d="M106 487l461 349l31 -39l-287 -310l183 -319l-43 -29zM487 487l461 349l31 -39l-287 -310l182 -319l-43 -29z" />
<glyph unicode="&#xac;" d="M53 633v184h1032v-596h-184v412h-848z" />
<glyph unicode="&#xad;" horiz-adv-x="757" d="M88 406q23 53 51 163q258 -6 260 -6l295 6q-33 -123 -41 -163q-33 0 -92 2t-108.5 3t-92.5 1q-2 0 -272 -6z" />
<glyph unicode="&#xae;" horiz-adv-x="1638" d="M115 715q0 313 214 529t531.5 216t531.5 -216t214 -529q0 -315 -214 -530.5t-531.5 -215.5t-531.5 215.5t-214 530.5zM270 714.5q0 -241.5 171 -423.5t419 -182q250 0 420 182t170 423.5t-170 424t-420 182.5q-248 0 -419 -182.5t-171 -424zM502 319v37q70 4 84 18.5 t14 76.5v536q0 57 -14.5 71.5t-83.5 16.5v37h416q109 0 179 -49t70 -150q0 -74 -46 -141t-109 -96l104 -154q100 -152 150 -178v-25h-172q-31 0 -64 47.5t-87 141.5t-101 156h-70v-213q2 -63 14.5 -77t81.5 -18v-37h-366zM772 713h76q70 0 102.5 53t32.5 135q0 96 -34 129 t-99 33h-78v-350z" />
<glyph unicode="&#xaf;" horiz-adv-x="569" d="M154 1223l30 127h570l-31 -127h-569z" />
<glyph unicode="&#xb0;" horiz-adv-x="819" d="M201 1139q0 127 90 216t215 89t215 -89t90 -216t-90 -216t-215 -89t-215 89t-90 216zM315 1139q0 -80 56.5 -135.5t134.5 -55.5t134 55.5t56 135.5t-56 135t-134 55t-134.5 -55t-56.5 -135z" />
<glyph unicode="&#xb1;" d="M53 0v184h1032v-184h-1032zM53 563v185h424v284h185v-284h423v-185h-423v-284h-185v284h-424z" />
<glyph unicode="&#xb2;" horiz-adv-x="739" d="M80 612q0 14 31 41q432 369 432 543q0 72 -39 115t-105 43q-37 0 -73.5 -16.5t-56 -30t-58.5 -45.5l-27 38q166 143 310 144q106 0 175.5 -49t69.5 -146q0 -66 -35.5 -133t-102 -129.5t-123 -106.5t-132.5 -100l-27 -18l-57 -41v-4h404l49 86l41 -10l-66 -215 q-184 4 -303 4q-72 0 -170 -2t-125 -2q-12 -1 -12 34z" />
<glyph unicode="&#xb3;" horiz-adv-x="739" d="M76 698l65 25q63 -115 181 -115q92 0 148 64.5t56 165.5q0 86 -42 126t-134 40q-14 0 -47 -5l14 54q100 0 177 53t77 141q0 55 -32.5 87t-96.5 32q-90 0 -182 -61l-22 34q139 104 272 105q92 0 160.5 -37t68.5 -123q0 -90 -63.5 -145.5t-179.5 -98.5v-4q215 -14 215 -190 q0 -121 -115 -204t-256 -83q-133 0 -236 43z" />
<glyph unicode="&#xb4;" horiz-adv-x="569" d="M295 1147l268 278q47 47 71.5 64.5t51.5 17.5q35 0 60.5 -25.5t25.5 -64.5q0 -16 -6 -28.5t-28.5 -30t-38 -27.5t-64.5 -39l-250 -145h-90z" />
<glyph unicode="&#xb5;" horiz-adv-x="1175" d="M-47 -377q0 33 7 71t25.5 98.5t37 112.5t55.5 157.5t65 189.5q139 436 140 453q0 29 -29 28q-31 0 -158 -117l-39 41q2 4 25.5 30t33 36t35 36.5t40 40t40 37t43 37t42 30t44 25.5t41 15t39.5 6q96 0 97 -102q0 -84 -96.5 -344t-96.5 -293q0 -37 33 -37q84 0 354 397 q57 84 105.5 184.5t73 147.5t42.5 47q8 0 52 -16l102 -45l-191 -572q-31 -88 -30 -122q0 -41 24 -41q12 0 33 11t44.5 32.5t39.5 37t37.5 38t23.5 24.5l39 -45q-131 -141 -216 -212t-154 -71q-49 0 -75 29t-26 65q0 72 152 504l-4 4q-6 -10 -46 -72.5t-61.5 -94t-67.5 -96 t-78 -102.5t-81 -89t-89 -79t-88 -48.5t-91 -20.5q-18 -66 -19 -192q0 -264 -137 -264q-45 0 -68.5 30.5t-23.5 79.5z" />
<glyph unicode="&#xb6;" horiz-adv-x="1269" d="M178 -365l12 62h62q61 0 88 35t49 137l143 694q-145 0 -217.5 83t-72.5 231q0 553 532 553h600l-12 -62h-68q-59 0 -83.5 -37t-51.5 -168l-268 -1294q-18 -96 -19 -119q0 -53 74 -53h68l-13 -62h-335l360 1733h-149l-361 -1733h-338zM426 868q0 -92 38 -141t93 -49 l131 637q-72 0 -126 -45t-81.5 -118t-41 -143.5t-13.5 -140.5z" />
<glyph unicode="&#xb7;" horiz-adv-x="569" d="M164 610q0 55 42 98.5t99 43.5q55 0 98 -43t43 -99q0 -57 -43 -99t-98 -42q-57 0 -99 42t-42 99z" />
<glyph unicode="&#xb8;" horiz-adv-x="569" d="M-43 -395l35 63q57 -33 137 -33q113 0 113 82q0 37 -26 59.5t-64 22.5q-33 0 -66 -14l-25 25l132 190h83l-92 -127q23 4 60 4q72 0 121 -40t49 -113q0 -70 -70 -118t-174 -48q-107 0 -213 47z" />
<glyph unicode="&#xb9;" horiz-adv-x="739" d="M158 578l4 49h49q66 0 82 16t31 72l98 483q12 49 12 61.5t-10 12.5q-2 0 -80 -35l-117 -59l-16 51l256 133q20 10 74.5 42t68.5 40l31 -6q-18 -82 -35 -166l-90 -465q-23 -121 -22 -137q0 -43 108 -43h35l-6 -49q-160 4 -240 4q-77 0 -233 -4z" />
<glyph unicode="&#xba;" horiz-adv-x="714" d="M143 1094q0 147 112 248.5t271 101.5q119 0 189.5 -69.5t70.5 -166.5q0 -150 -111.5 -251t-271.5 -101q-119 0 -189.5 71t-70.5 167zM311 1055q0 -137 99 -137q94 0 151 118.5t57 208.5q0 137 -98 137q-53 0 -96 -42t-65.5 -100t-35 -108t-12.5 -77z" />
<glyph unicode="&#xbb;" horiz-adv-x="1062" d="M106 178l287 309l-182 320l43 29l344 -349l-461 -348zM487 178l287 309l-182 320l43 29l344 -349l-461 -348z" />
<glyph unicode="&#xbc;" horiz-adv-x="1708" d="M158 578l4 49h49q66 0 82 16t31 72l98 483q12 49 12 61.5t-10 12.5q-2 0 -80 -35l-117 -59l-16 51l256 133q20 10 74.5 42t68.5 40l31 -6q-18 -82 -35 -166l-90 -465q-23 -121 -22 -137q0 -43 108 -43h35l-6 -49q-160 4 -240 4q-77 0 -233 -4zM416 -61l901 1536h121 l-901 -1536h-121zM987 240l8 69l576 557h88l-105 -512h146l-25 -114h-143l-49 -240h-162l49 240h-383zM1118 354h275l67 336h-4z" />
<glyph unicode="&#xbd;" horiz-adv-x="1708" d="M158 578l4 49h49q66 0 82 16t31 72l98 483q12 49 12 61.5t-10 12.5q-2 0 -80 -35l-117 -59l-16 51l256 133q20 10 74.5 42t68.5 40l31 -6q-18 -82 -35 -166l-90 -465q-23 -121 -22 -137q0 -43 108 -43h35l-6 -49q-160 4 -240 4q-77 0 -233 -4zM385 -61l901 1536h121 l-901 -1536h-121zM1018 35q0 14 31 41q432 369 432 542q0 72 -39 115t-105 43q-37 0 -73.5 -16.5t-56 -29.5t-58.5 -46l-27 39q166 143 310 143q106 0 175.5 -49t69.5 -145q0 -66 -35.5 -133.5t-102 -130t-123 -106.5t-132.5 -99q-18 -12 -27 -19l-57 -41v-4h404l49 86 l41 -10l-66 -215q-184 4 -303 4q-72 0 -170 -2t-125 -2q-12 0 -12 35z" />
<glyph unicode="&#xbe;" horiz-adv-x="1708" d="M76 698l65 25q63 -115 181 -115q92 0 148 64.5t56 165.5q0 86 -42 126t-134 40q-14 0 -47 -5l14 54q100 0 177 53t77 141q0 55 -32.5 87t-96.5 32q-90 0 -182 -61l-22 34q139 104 272 105q92 0 160.5 -37t68.5 -123q0 -90 -63.5 -145.5t-179.5 -98.5v-4q215 -14 215 -190 q0 -121 -115 -204t-256 -83q-133 0 -236 43zM416 -61l901 1536h121l-901 -1536h-121zM987 240l8 69l576 557h88l-105 -512h146l-25 -114h-143l-49 -240h-162l49 240h-383zM1118 354h275l67 336h-4z" />
<glyph unicode="&#xbf;" horiz-adv-x="909" d="M18 -106q0 92 58.5 154.5t140.5 92t165 53t141.5 59.5t58.5 91q0 43 -35 75t-82 32q-35 0 -70 -16.5t-61 -16.5q-29 0 -47.5 19.5t-18.5 47.5q0 92 105 93q129 0 226 -103.5t97 -230.5q0 -88 -58 -144.5t-140 -84t-165 -52t-141.5 -66.5t-58.5 -106q0 -61 39 -96t102 -35 q45 0 112 33t106 33q31 0 52 -25t21 -55q0 -113 -172 -113q-166 0 -270.5 98.5t-104.5 262.5zM397 856q0 61 46 106.5t106 45.5q61 0 106 -44t45 -108q0 -61 -44 -106t-107 -45q-61 0 -106.5 46t-45.5 105z" />
<glyph unicode="&#xc0;" horiz-adv-x="1402" d="M-117 0l11 61h24q76 0 118 32t91 118l578 1014q109 186 133 231l110 31l29 -17q10 -57 29.5 -173.5t29.5 -174.5l150 -856q20 -121 49 -163t119 -42h47l-10 -61q-35 0 -141.5 4t-166 4t-168 -4t-143.5 -4l10 61h52q66 0 87 14.5t21 51.5q0 25 -12 94l-41 275h-481 l-132 -254q-43 -82 -43 -125q0 -55 134 -56h43l-9 -61q-29 0 -120 4t-140 4q-43 0 -129 -4t-129 -4zM465 598h407l-96 561h-4zM618 1810q0 37 27 57.5t64 20.5q55 0 100 -63l225 -297h-82l-278 196q-56 39 -56 86z" />
<glyph unicode="&#xc1;" horiz-adv-x="1402" d="M-117 0l11 61h24q76 0 118 32t91 118l578 1014q109 186 133 231l110 31l29 -17q10 -57 29.5 -173.5t29.5 -174.5l150 -856q20 -121 49 -163t119 -42h47l-10 -61q-35 0 -141.5 4t-166 4t-168 -4t-143.5 -4l10 61h52q66 0 87 14.5t21 51.5q0 25 -12 94l-41 275h-481 l-132 -254q-43 -82 -43 -125q0 -55 134 -56h43l-9 -61q-29 0 -120 4t-140 4q-43 0 -129 -4t-129 -4zM465 598h407l-96 561h-4zM733 1528l268 278q47 47 72 64.5t51 17.5q35 0 60.5 -25.5t25.5 -64.5q0 -16 -6 -28.5t-28.5 -30t-38 -27.5t-64.5 -39l-250 -145h-90z" />
<glyph unicode="&#xc2;" horiz-adv-x="1402" d="M-117 0l11 61h24q76 0 118 32t91 118l578 1014q109 186 133 231l110 31l29 -17q10 -57 29.5 -173.5t29.5 -174.5l150 -856q20 -121 49 -163t119 -42h47l-10 -61q-35 0 -141.5 4t-166 4t-168 -4t-143.5 -4l10 61h52q66 0 87 14.5t21 51.5q0 25 -12 94l-41 275h-481 l-132 -254q-43 -82 -43 -125q0 -55 134 -56h43l-9 -61q-29 0 -120 4t-140 4q-43 0 -129 -4t-129 -4zM465 598h407l-96 561h-4zM545 1528l325 348h138l180 -348h-92l-176 203l-273 -203h-102z" />
<glyph unicode="&#xc3;" horiz-adv-x="1402" d="M-117 0l11 61h24q76 0 118 32t91 118l578 1014q109 186 133 231l110 31l29 -17q10 -57 29.5 -173.5t29.5 -174.5l150 -856q20 -121 49 -163t119 -42h47l-10 -61q-35 0 -141.5 4t-166 4t-168 -4t-143.5 -4l10 61h52q66 0 87 14.5t21 51.5q0 25 -12 94l-41 275h-481 l-132 -254q-43 -82 -43 -125q0 -55 134 -56h43l-9 -61q-29 0 -120 4t-140 4q-43 0 -129 -4t-129 -4zM465 598h407l-96 561h-4zM561 1573q14 92 80 159.5t164 67.5q53 0 147 -43q94 -45 142 -45q39 0 68.5 28.5t39.5 57.5h76q-14 -92 -79.5 -159.5t-164.5 -67.5 q-57 0 -147 45q-94 45 -142 45q-39 0 -68.5 -28.5t-39.5 -59.5h-76z" />
<glyph unicode="&#xc4;" horiz-adv-x="1402" d="M-117 0l11 61h24q76 0 118 32t91 118l578 1014q109 186 133 231l110 31l29 -17q10 -57 29.5 -173.5t29.5 -174.5l150 -856q20 -121 49 -163t119 -42h47l-10 -61q-35 0 -141.5 4t-166 4t-168 -4t-143.5 -4l10 61h52q66 0 87 14.5t21 51.5q0 25 -12 94l-41 275h-481 l-132 -254q-43 -82 -43 -125q0 -55 134 -56h43l-9 -61q-29 0 -120 4t-140 4q-43 0 -129 -4t-129 -4zM465 598h407l-96 561h-4zM571 1692q0 47 34 80.5t81 33.5t81 -33.5t34 -80.5t-34 -81t-81 -34t-81 34t-34 81zM1004 1692q0 47 33.5 80.5t80.5 33.5t81 -33.5t34 -80.5 t-34 -81t-81 -34t-80.5 34t-33.5 81z" />
<glyph unicode="&#xc5;" horiz-adv-x="1402" d="M-117 0l11 61h24q76 0 118 32t91 118l578 1014q109 186 133 231l110 31l29 -17q10 -57 29.5 -173.5t29.5 -174.5l150 -856q20 -121 49 -163t119 -42h47l-10 -61q-35 0 -141.5 4t-166 4t-168 -4t-143.5 -4l10 61h52q66 0 87 14.5t21 51.5q0 25 -12 94l-41 275h-481 l-132 -254q-43 -82 -43 -125q0 -55 134 -56h43l-9 -61q-29 0 -120 4t-140 4q-43 0 -129 -4t-129 -4zM465 598h407l-96 561h-4zM707 1745q0 84 62 147.5t149 63.5q84 0 147 -63.5t63 -147.5q0 -86 -63.5 -148.5t-146.5 -62.5q-86 0 -148.5 62.5t-62.5 148.5zM797 1745 q0 -51 34.5 -86t86.5 -35q49 0 84.5 35t35.5 86q0 49 -35.5 85t-84.5 36q-51 0 -86 -36t-35 -85z" />
<glyph unicode="&#xc6;" horiz-adv-x="2048" d="M-135 0l10 61h12q82 0 139.5 50.5t219.5 269.5l596 803q61 84 61 123q0 37 -38 49t-117 12h-23l10 62q10 0 198.5 -4.5t309.5 -4.5q39 0 262.5 3t472.5 6l-36 -314h-60v25q0 113 -43 151.5t-164 38.5q-240 0 -323 -2l-101 -569l228 4q113 2 145.5 30.5t63.5 153.5h65 l-80 -485h-67q8 61 8 115q0 51 -26.5 66t-82.5 15h-272l-72 -393q-14 -78 -14 -104q0 -37 31.5 -54.5t134.5 -17.5h76q115 0 182 7t116.5 18.5t84 50.5t57 74.5t65.5 119.5h64l-96 -360q-90 0 -279.5 4t-296.5 4q-123 0 -347 -4t-253 -4l12 61h37q94 0 124 39t61 213l59 346 h-401l-183 -247q-176 -244 -176 -293q0 -57 98 -58h64l-12 -61q-20 0 -86 4t-101 4q-61 0 -170.5 -4t-146.5 -4zM651 762h350l93 577h-15z" />
<glyph unicode="&#xc7;" horiz-adv-x="1517" d="M139 631q0 373 243 601t597 228q123 0 208 -23.5t134 -46t88 -22.5q35 0 43 43l49 -8q-49 -219 -67 -387l-62 8q0 164 -84 261t-246 97q-152 0 -272.5 -65.5t-195 -177t-113.5 -247.5t-39 -286q0 -236 121 -397.5t321 -161.5q170 0 295 100.5t199 268.5l57 -17 q-53 -162 -88 -348q-12 4 -39 4q-10 0 -160.5 -43t-279.5 -43q-8 0 -26.5 1t-28.5 1l-72 -98q23 4 59 4q72 0 121 -40t49 -113q0 -70 -69.5 -118t-173.5 -48q-106 0 -213 47l34 63q57 -33 138 -33q113 0 112 82q0 37 -25.5 59.5t-64.5 22.5q-33 0 -65 -14l-25 25l117 167 q-270 37 -423 214.5t-153 439.5z" />
<glyph unicode="&#xc8;" horiz-adv-x="1327" d="M-16 0l10 61q102 2 140 22.5t54 109.5l166 882q33 178 33 217q0 47 -39 60.5t-139 15.5l8 62q117 -2 213 -5.5t131 -3.5q39 0 262.5 3t474.5 6q-23 -131 -38 -306h-64q2 14 2 52q0 102 -60.5 139t-246.5 37q-72 0 -232 -13l-98 -536h246q106 0 151.5 40t67.5 150h59 q-6 -27 -88 -485h-55q6 68 6 92q0 78 -31.5 95.5t-177.5 17.5q-113 0 -194 -4l-80 -443q-14 -78 -14 -104q0 -37 31.5 -54.5t133.5 -17.5h156q80 0 132 3t96 18.5t69 29t51.5 51t43 68.5t46.5 96h64q-16 -59 -94 -356q-74 0 -302.5 4t-353.5 4q-102 0 -291.5 -4t-248.5 -4z M559 1810q0 37 26.5 57.5t63.5 20.5q55 0 101 -63l225 -297h-82l-279 196q-55 39 -55 86z" />
<glyph unicode="&#xc9;" horiz-adv-x="1327" d="M-16 0l10 61q102 2 140 22.5t54 109.5l166 882q33 178 33 217q0 47 -39 60.5t-139 15.5l8 62q117 -2 213 -5.5t131 -3.5q39 0 262.5 3t474.5 6q-23 -131 -38 -306h-64q2 14 2 52q0 102 -60.5 139t-246.5 37q-72 0 -232 -13l-98 -536h246q106 0 151.5 40t67.5 150h59 q-6 -27 -88 -485h-55q6 68 6 92q0 78 -31.5 95.5t-177.5 17.5q-113 0 -194 -4l-80 -443q-14 -78 -14 -104q0 -37 31.5 -54.5t133.5 -17.5h156q80 0 132 3t96 18.5t69 29t51.5 51t43 68.5t46.5 96h64q-16 -59 -94 -356q-74 0 -302.5 4t-353.5 4q-102 0 -291.5 -4t-248.5 -4z M674 1528l268 278q47 47 71.5 64.5t51.5 17.5q35 0 60.5 -25.5t25.5 -64.5q0 -16 -6 -28.5t-28.5 -30t-38 -27.5t-64.5 -39l-250 -145h-90z" />
<glyph unicode="&#xca;" horiz-adv-x="1327" d="M-16 0l10 61q102 2 140 22.5t54 109.5l166 882q33 178 33 217q0 47 -39 60.5t-139 15.5l8 62q117 -2 213 -5.5t131 -3.5q39 0 262.5 3t474.5 6q-23 -131 -38 -306h-64q2 14 2 52q0 102 -60.5 139t-246.5 37q-72 0 -232 -13l-98 -536h246q106 0 151.5 40t67.5 150h59 q-6 -27 -88 -485h-55q6 68 6 92q0 78 -31.5 95.5t-177.5 17.5q-113 0 -194 -4l-80 -443q-14 -78 -14 -104q0 -37 31.5 -54.5t133.5 -17.5h156q80 0 132 3t96 18.5t69 29t51.5 51t43 68.5t46.5 96h64q-16 -59 -94 -356q-74 0 -302.5 4t-353.5 4q-102 0 -291.5 -4t-248.5 -4z M485 1528l326 348h137l180 -348h-92l-176 203l-272 -203h-103z" />
<glyph unicode="&#xcb;" horiz-adv-x="1327" d="M-16 0l10 61q102 2 140 22.5t54 109.5l166 882q33 178 33 217q0 47 -39 60.5t-139 15.5l8 62q117 -2 213 -5.5t131 -3.5q39 0 262.5 3t474.5 6q-23 -131 -38 -306h-64q2 14 2 52q0 102 -60.5 139t-246.5 37q-72 0 -232 -13l-98 -536h246q106 0 151.5 40t67.5 150h59 q-6 -27 -88 -485h-55q6 68 6 92q0 78 -31.5 95.5t-177.5 17.5q-113 0 -194 -4l-80 -443q-14 -78 -14 -104q0 -37 31.5 -54.5t133.5 -17.5h156q80 0 132 3t96 18.5t69 29t51.5 51t43 68.5t46.5 96h64q-16 -59 -94 -356q-74 0 -302.5 4t-353.5 4q-102 0 -291.5 -4t-248.5 -4z M512 1692q0 47 34 80.5t81 33.5t80.5 -33.5t33.5 -80.5t-33.5 -81t-80.5 -34t-81 34t-34 81zM944 1692q0 47 34 80.5t81 33.5t81 -33.5t34 -80.5t-34 -81t-81 -34t-81 34t-34 81z" />
<glyph unicode="&#xcc;" horiz-adv-x="720" d="M-16 0l10 61q102 2 140 22.5t54 109.5l166 882q33 178 33 217q0 47 -39 60.5t-139 15.5l8 62q35 0 150.5 -4.5t177.5 -4.5q53 0 156.5 4.5t142.5 4.5l-10 -62q-100 -2 -138.5 -18.5t-50.5 -85.5l-172 -912q-33 -176 -33 -215q0 -47 34 -60.5t130 -15.5l-8 -61 q-16 0 -131 4t-178 4q-53 0 -156.5 -4t-146.5 -4zM276 1810q0 37 27 57.5t64 20.5q55 0 100 -63l225 -297h-82l-278 196q-56 39 -56 86z" />
<glyph unicode="&#xcd;" horiz-adv-x="720" d="M-16 0l10 61q102 2 140 22.5t54 109.5l166 882q33 178 33 217q0 47 -39 60.5t-139 15.5l8 62q35 0 150.5 -4.5t177.5 -4.5q53 0 156.5 4.5t142.5 4.5l-10 -62q-100 -2 -138.5 -18.5t-50.5 -85.5l-172 -912q-33 -176 -33 -215q0 -47 34 -60.5t130 -15.5l-8 -61 q-16 0 -131 4t-178 4q-53 0 -156.5 -4t-146.5 -4zM391 1528l268 278q47 47 72 64.5t51 17.5q35 0 60.5 -25.5t25.5 -64.5q0 -16 -6 -28.5t-28.5 -30t-38 -27.5t-64.5 -39l-250 -145h-90z" />
<glyph unicode="&#xce;" horiz-adv-x="720" d="M-16 0l10 61q102 2 140 22.5t54 109.5l166 882q33 178 33 217q0 47 -39 60.5t-139 15.5l8 62q35 0 150.5 -4.5t177.5 -4.5q53 0 156.5 4.5t142.5 4.5l-10 -62q-100 -2 -138.5 -18.5t-50.5 -85.5l-172 -912q-33 -176 -33 -215q0 -47 34 -60.5t130 -15.5l-8 -61 q-16 0 -131 4t-178 4q-53 0 -156.5 -4t-146.5 -4zM203 1528l325 348h138l180 -348h-92l-176 203l-273 -203h-102z" />
<glyph unicode="&#xcf;" horiz-adv-x="720" d="M-16 0l10 61q102 2 140 22.5t54 109.5l166 882q33 178 33 217q0 47 -39 60.5t-139 15.5l8 62q35 0 150.5 -4.5t177.5 -4.5q53 0 156.5 4.5t142.5 4.5l-10 -62q-100 -2 -138.5 -18.5t-50.5 -85.5l-172 -912q-33 -176 -33 -215q0 -47 34 -60.5t130 -15.5l-8 -61 q-16 0 -131 4t-178 4q-53 0 -156.5 -4t-146.5 -4zM229 1692q0 47 34 80.5t81 33.5t81 -33.5t34 -80.5t-34 -81t-81 -34t-81 34t-34 81zM662 1692q0 47 33.5 80.5t80.5 33.5t81 -33.5t34 -80.5t-34 -81t-81 -34t-80.5 34t-33.5 81z" />
<glyph unicode="&#xd0;" horiz-adv-x="1593" d="M-16 0l10 61q102 2 140 22.5t54 109.5l105 548h-195l19 115h196l58 307q12 61 12 105q0 100 -152 100h-34l8 62q23 0 128 -4.5t173 -4.5q63 0 194 4.5t187 4.5q301 0 488.5 -179.5t187.5 -443.5q0 -203 -73 -361.5t-194.5 -254t-269 -143.5t-307.5 -48q-127 0 -268.5 4 t-184.5 4q-53 0 -152 -4t-130 -4zM446 162q0 -84 203 -84q281 0 456 212t175 531q0 246 -128 388.5t-372 142.5q-41 0 -123 -4l-90 -492h365l-19 -115h-366l-90 -487q-11 -65 -11 -92z" />
<glyph unicode="&#xd1;" horiz-adv-x="1593" d="M-27 0l11 61h16q90 0 133 37t66 164l168 912l-41 67q-45 76 -81 101.5t-108 25.5l10 62q23 0 96.5 -4.5t112.5 -4.5q31 0 89.5 4.5t76.5 4.5q25 -47 94 -154l629 -961l125 766q20 123 21 181q0 66 -45.5 86t-131.5 20l9 62q29 0 116.5 -4.5t135.5 -4.5q41 0 123.5 4.5 t123.5 4.5l-8 -62q-117 0 -155.5 -39t-65.5 -186l-170 -942l45 -70q45 -70 105 -70l-11 -61q-18 0 -75.5 4t-88 4t-88 -4t-75.5 -4q-6 10 -55.5 96t-78.5 129l-555 844l-133 -788q-12 -74 -12 -134q0 -86 133 -86h43l-10 -61q-25 0 -108 4t-128 4q-49 0 -139 -4t-119 -4z M655 1573q14 92 80 159.5t164 67.5q53 0 148 -43q94 -45 141 -45q39 0 68.5 28.5t39.5 57.5h76q-14 -92 -79.5 -159.5t-164.5 -67.5q-57 0 -147 45q-94 45 -141 45q-39 0 -69 -28.5t-40 -59.5h-76z" />
<glyph unicode="&#xd2;" horiz-adv-x="1744" d="M139 631q0 373 243 601t597 228q326 0 517.5 -189.5t191.5 -471.5q0 -352 -246 -591t-590 -239q-332 0 -522.5 183.5t-190.5 478.5zM422 594q0 -102 19.5 -192.5t64.5 -173.5t133 -132t209 -49q170 0 299 113.5t193.5 294t64.5 393.5q0 82 -11.5 153.5t-41 143.5 t-76.5 123t-123 82.5t-174 31.5q-141 0 -253 -77.5t-175.5 -200.5t-96 -254t-32.5 -256zM788 1810q0 37 27 57.5t64 20.5q55 0 100 -63l225 -297h-82l-278 196q-56 39 -56 86z" />
<glyph unicode="&#xd3;" horiz-adv-x="1744" d="M139 631q0 373 243 601t597 228q326 0 517.5 -189.5t191.5 -471.5q0 -352 -246 -591t-590 -239q-332 0 -522.5 183.5t-190.5 478.5zM422 594q0 -102 19.5 -192.5t64.5 -173.5t133 -132t209 -49q170 0 299 113.5t193.5 294t64.5 393.5q0 82 -11.5 153.5t-41 143.5 t-76.5 123t-123 82.5t-174 31.5q-141 0 -253 -77.5t-175.5 -200.5t-96 -254t-32.5 -256zM903 1528l268 278q47 47 72 64.5t51 17.5q35 0 60.5 -25.5t25.5 -64.5q0 -16 -6 -28.5t-28.5 -30t-38 -27.5t-64.5 -39l-250 -145h-90z" />
<glyph unicode="&#xd4;" horiz-adv-x="1744" d="M139 631q0 373 243 601t597 228q326 0 517.5 -189.5t191.5 -471.5q0 -352 -246 -591t-590 -239q-332 0 -522.5 183.5t-190.5 478.5zM422 594q0 -102 19.5 -192.5t64.5 -173.5t133 -132t209 -49q170 0 299 113.5t193.5 294t64.5 393.5q0 82 -11.5 153.5t-41 143.5 t-76.5 123t-123 82.5t-174 31.5q-141 0 -253 -77.5t-175.5 -200.5t-96 -254t-32.5 -256zM715 1528l325 348h138l180 -348h-92l-176 203l-273 -203h-102z" />
<glyph unicode="&#xd5;" horiz-adv-x="1744" d="M139 631q0 373 243 601t597 228q326 0 517.5 -189.5t191.5 -471.5q0 -352 -246 -591t-590 -239q-332 0 -522.5 183.5t-190.5 478.5zM422 594q0 -102 19.5 -192.5t64.5 -173.5t133 -132t209 -49q170 0 299 113.5t193.5 294t64.5 393.5q0 82 -11.5 153.5t-41 143.5 t-76.5 123t-123 82.5t-174 31.5q-141 0 -253 -77.5t-175.5 -200.5t-96 -254t-32.5 -256zM731 1573q14 92 80 159.5t164 67.5q53 0 147 -43q94 -45 142 -45q39 0 68.5 28.5t39.5 57.5h76q-14 -92 -79.5 -159.5t-164.5 -67.5q-57 0 -147 45q-94 45 -142 45q-39 0 -68.5 -28.5 t-39.5 -59.5h-76z" />
<glyph unicode="&#xd6;" horiz-adv-x="1744" d="M139 631q0 373 243 601t597 228q326 0 517.5 -189.5t191.5 -471.5q0 -352 -246 -591t-590 -239q-332 0 -522.5 183.5t-190.5 478.5zM422 594q0 -102 19.5 -192.5t64.5 -173.5t133 -132t209 -49q170 0 299 113.5t193.5 294t64.5 393.5q0 82 -11.5 153.5t-41 143.5 t-76.5 123t-123 82.5t-174 31.5q-141 0 -253 -77.5t-175.5 -200.5t-96 -254t-32.5 -256zM741 1692q0 47 34 80.5t81 33.5t81 -33.5t34 -80.5t-34 -81t-81 -34t-81 34t-34 81zM1174 1692q0 47 33.5 80.5t80.5 33.5t81 -33.5t34 -80.5t-34 -81t-81 -34t-80.5 34t-33.5 81z" />
<glyph unicode="&#xd7;" d="M94 168l348 348l-348 348l127 127l348 -350l349 350l126 -127l-350 -348l350 -348l-126 -127l-349 350l-348 -350z" />
<glyph unicode="&#xd8;" horiz-adv-x="1744" d="M98 -35l211 209q-170 176 -170 457q0 373 243 601t597 228q289 0 475 -153l217 215l58 -58l-216 -211q174 -184 175 -454q0 -352 -246 -591t-590 -239q-299 0 -481 150l-215 -211zM422 594q0 -156 41 -268l868 860q-102 197 -352 196q-141 0 -253 -77.5t-175.5 -200.5 t-96 -254t-32.5 -256zM498 246q109 -199 350 -199q170 0 299 113.5t193.5 294t64.5 393.5q0 147 -39 258z" />
<glyph unicode="&#xd9;" horiz-adv-x="1478" d="M176 1368l8 62q35 0 151 -4.5t177 -4.5q53 0 156.5 4.5t142.5 4.5l-10 -62q-100 -2 -138 -18.5t-51 -85.5l-143 -799q-12 -70 -12 -133q0 -131 76.5 -195.5t201.5 -64.5q223 0 325.5 100t135.5 324l94 618q16 98 17 160q0 94 -172 94l8 62q27 0 111.5 -4.5t129.5 -4.5 q47 0 137.5 4.5t116.5 4.5l-8 -62q-111 0 -150.5 -34t-58.5 -134l-155 -827q-76 -403 -553 -404q-221 0 -365.5 93.5t-144.5 295.5q0 92 24 228l95 489q33 166 32 217q0 47 -39 60.5t-139 15.5zM655 1810q0 37 27 57.5t63 20.5q55 0 101 -63l225 -297h-82l-278 196 q-56 39 -56 86z" />
<glyph unicode="&#xda;" horiz-adv-x="1478" d="M176 1368l8 62q35 0 151 -4.5t177 -4.5q53 0 156.5 4.5t142.5 4.5l-10 -62q-100 -2 -138 -18.5t-51 -85.5l-143 -799q-12 -70 -12 -133q0 -131 76.5 -195.5t201.5 -64.5q223 0 325.5 100t135.5 324l94 618q16 98 17 160q0 94 -172 94l8 62q27 0 111.5 -4.5t129.5 -4.5 q47 0 137.5 4.5t116.5 4.5l-8 -62q-111 0 -150.5 -34t-58.5 -134l-155 -827q-76 -403 -553 -404q-221 0 -365.5 93.5t-144.5 295.5q0 92 24 228l95 489q33 166 32 217q0 47 -39 60.5t-139 15.5zM770 1528l268 278q47 47 72 64.5t51 17.5q35 0 60.5 -25.5t25.5 -64.5 q0 -16 -6 -28.5t-28.5 -30t-38 -27.5t-64.5 -39l-250 -145h-90z" />
<glyph unicode="&#xdb;" horiz-adv-x="1478" d="M176 1368l8 62q35 0 151 -4.5t177 -4.5q53 0 156.5 4.5t142.5 4.5l-10 -62q-100 -2 -138 -18.5t-51 -85.5l-143 -799q-12 -70 -12 -133q0 -131 76.5 -195.5t201.5 -64.5q223 0 325.5 100t135.5 324l94 618q16 98 17 160q0 94 -172 94l8 62q27 0 111.5 -4.5t129.5 -4.5 q47 0 137.5 4.5t116.5 4.5l-8 -62q-111 0 -150.5 -34t-58.5 -134l-155 -827q-76 -403 -553 -404q-221 0 -365.5 93.5t-144.5 295.5q0 92 24 228l95 489q33 166 32 217q0 47 -39 60.5t-139 15.5zM582 1528l325 348h137l181 -348h-92l-177 203l-272 -203h-102z" />
<glyph unicode="&#xdc;" horiz-adv-x="1478" d="M176 1368l8 62q35 0 151 -4.5t177 -4.5q53 0 156.5 4.5t142.5 4.5l-10 -62q-100 -2 -138 -18.5t-51 -85.5l-143 -799q-12 -70 -12 -133q0 -131 76.5 -195.5t201.5 -64.5q223 0 325.5 100t135.5 324l94 618q16 98 17 160q0 94 -172 94l8 62q27 0 111.5 -4.5t129.5 -4.5 q47 0 137.5 4.5t116.5 4.5l-8 -62q-111 0 -150.5 -34t-58.5 -134l-155 -827q-76 -403 -553 -404q-221 0 -365.5 93.5t-144.5 295.5q0 92 24 228l95 489q33 166 32 217q0 47 -39 60.5t-139 15.5zM608 1692q0 47 34 80.5t81 33.5t81 -33.5t34 -80.5t-34 -81t-81 -34t-81 34 t-34 81zM1040 1692q0 47 34 80.5t81 33.5t81 -33.5t34 -80.5t-34 -81t-81 -34t-81 34t-34 81z" />
<glyph unicode="&#xdd;" horiz-adv-x="1290" d="M80 1368l10 62q39 0 154.5 -4.5t179.5 -4.5q53 0 152.5 4.5t130.5 4.5l-9 -62q-86 0 -119.5 -12.5t-33.5 -48.5q0 -49 53 -191l154 -418l309 492q49 80 49 115q0 63 -152 63l9 62q27 0 113.5 -4.5t134 -4.5t133.5 4.5t112 4.5l-8 -62q-84 0 -131 -29.5t-102 -115.5 l-426 -648l-54 -292q-20 -111 -20 -162q0 -59 123 -60h61l-10 -61q-37 0 -153.5 4t-180.5 4q-57 0 -163.5 -4t-139.5 -4l10 61h39q94 0 122 33t46 135l66 338l-220 578q-57 152 -97 187.5t-142 35.5zM676 1528l268 278q47 47 71.5 64.5t51.5 17.5q35 0 60.5 -25.5 t25.5 -64.5q0 -16 -6 -28.5t-28.5 -30t-38 -27.5t-64.5 -39l-250 -145h-90z" />
<glyph unicode="&#xde;" horiz-adv-x="1214" d="M-16 0l10 61q102 2 140 22.5t54 109.5l166 882q33 178 33 217q0 47 -39 60.5t-139 15.5l8 62q35 0 150.5 -4.5t177.5 -4.5q53 0 156.5 4.5t142.5 4.5l-10 -62q-100 -2 -138.5 -18.5t-50.5 -85.5l-6 -43q86 4 166 4q78 0 146.5 -15.5t131 -51.5t99.5 -104.5t37 -162.5 q0 -199 -153 -314.5t-331 -115.5q-111 0 -162 10l15 76q49 -8 94 -8q121 0 187.5 109.5t66.5 244.5q0 254 -211 254q-23 0 -104 -8l-164 -889q-8 -39 -8 -109q0 -80 126 -80h70l-8 -61q-39 0 -164 4t-192 4q-55 0 -159.5 -4t-137.5 -4z" />
<glyph unicode="&#xdf;" d="M-55 -471l100 408q20 84 113.5 495.5t156.5 626.5q70 238 240 372t391 134q102 0 175 -61.5t73 -162.5q0 -82 -58.5 -158.5t-128 -121.5t-128 -95.5t-58.5 -84.5q0 -49 113 -233.5t113 -256.5q0 -156 -143.5 -279.5t-293.5 -123.5q-72 0 -129 37.5t-57 99.5q0 70 68 143 l36 -10q70 -131 205 -131q63 0 104.5 33t41.5 94q0 66 -127 268.5t-127 274.5q0 47 60 105.5t132 106.5t132.5 120.5t60.5 146.5q0 86 -53.5 136t-143.5 50q-102 0 -160.5 -85t-115.5 -302q-49 -193 -109.5 -409.5t-101.5 -357t-114 -389.5t-103 -351l-140 -55z" />
<glyph unicode="&#xe0;" horiz-adv-x="1099" d="M37 143q0 137 73.5 288t179 262.5t224.5 184t207 72.5q43 0 69.5 -17.5t53.5 -62.5l41 97q8 20 41 20q113 0 112 -26q0 -2 -51 -166l-143 -473q-27 -86 -27 -115q0 -33 35 -33q57 0 174 137l43 -43q-6 -8 -47 -51t-63.5 -66.5t-65.5 -63.5t-75 -61.5t-69.5 -39 t-68.5 -17.5q-41 0 -66.5 24.5t-25.5 67.5q0 76 88 312l-4 4q-80 -139 -222.5 -273.5t-267.5 -134.5q-76 0 -110.5 52t-34.5 122zM242 299q0 -145 86 -145q84 0 187 108.5t171 243.5t68 217q0 113 -103 113q-100 0 -198.5 -99.5t-154.5 -223.5t-56 -214zM467 1430 q0 37 26.5 57t63.5 20q55 0 100 -63l226 -297h-82l-279 196q-55 40 -55 87z" />
<glyph unicode="&#xe1;" horiz-adv-x="1099" d="M37 143q0 137 73.5 288t179 262.5t224.5 184t207 72.5q43 0 69.5 -17.5t53.5 -62.5l41 97q8 20 41 20q113 0 112 -26q0 -2 -51 -166l-143 -473q-27 -86 -27 -115q0 -33 35 -33q57 0 174 137l43 -43q-6 -8 -47 -51t-63.5 -66.5t-65.5 -63.5t-75 -61.5t-69.5 -39 t-68.5 -17.5q-41 0 -66.5 24.5t-25.5 67.5q0 76 88 312l-4 4q-80 -139 -222.5 -273.5t-267.5 -134.5q-76 0 -110.5 52t-34.5 122zM242 299q0 -145 86 -145q84 0 187 108.5t171 243.5t68 217q0 113 -103 113q-100 0 -198.5 -99.5t-154.5 -223.5t-56 -214zM582 1147l268 278 q47 47 71.5 64.5t51.5 17.5q35 0 60.5 -25.5t25.5 -64.5q0 -16 -6 -28.5t-29 -30t-38 -27.5t-64 -39l-250 -145h-90z" />
<glyph unicode="&#xe2;" horiz-adv-x="1099" d="M37 143q0 137 73.5 288t179 262.5t224.5 184t207 72.5q43 0 69.5 -17.5t53.5 -62.5l41 97q8 20 41 20q113 0 112 -26q0 -2 -51 -166l-143 -473q-27 -86 -27 -115q0 -33 35 -33q57 0 174 137l43 -43q-6 -8 -47 -51t-63.5 -66.5t-65.5 -63.5t-75 -61.5t-69.5 -39 t-68.5 -17.5q-41 0 -66.5 24.5t-25.5 67.5q0 76 88 312l-4 4q-80 -139 -222.5 -273.5t-267.5 -134.5q-76 0 -110.5 52t-34.5 122zM242 299q0 -145 86 -145q84 0 187 108.5t171 243.5t68 217q0 113 -103 113q-100 0 -198.5 -99.5t-154.5 -223.5t-56 -214zM393 1147l326 348 h137l180 -348h-92l-176 203l-272 -203h-103z" />
<glyph unicode="&#xe3;" horiz-adv-x="1099" d="M37 143q0 137 73.5 288t179 262.5t224.5 184t207 72.5q43 0 69.5 -17.5t53.5 -62.5l41 97q8 20 41 20q113 0 112 -26q0 -2 -51 -166l-143 -473q-27 -86 -27 -115q0 -33 35 -33q57 0 174 137l43 -43q-6 -8 -47 -51t-63.5 -66.5t-65.5 -63.5t-75 -61.5t-69.5 -39 t-68.5 -17.5q-41 0 -66.5 24.5t-25.5 67.5q0 76 88 312l-4 4q-80 -139 -222.5 -273.5t-267.5 -134.5q-76 0 -110.5 52t-34.5 122zM242 299q0 -145 86 -145q84 0 187 108.5t171 243.5t68 217q0 113 -103 113q-100 0 -198.5 -99.5t-154.5 -223.5t-56 -214zM410 1192 q14 92 79.5 159.5t163.5 67.5q53 0 148 -43q94 -45 141 -45q39 0 68.5 29t40.5 57h75q-14 -92 -79.5 -159.5t-163.5 -67.5q-57 0 -148 45q-94 45 -141 45q-39 0 -68.5 -28.5t-40.5 -59.5h-75z" />
<glyph unicode="&#xe4;" horiz-adv-x="1099" d="M37 143q0 137 73.5 288t179 262.5t224.5 184t207 72.5q43 0 69.5 -17.5t53.5 -62.5l41 97q8 20 41 20q113 0 112 -26q0 -2 -51 -166l-143 -473q-27 -86 -27 -115q0 -33 35 -33q57 0 174 137l43 -43q-6 -8 -47 -51t-63.5 -66.5t-65.5 -63.5t-75 -61.5t-69.5 -39 t-68.5 -17.5q-41 0 -66.5 24.5t-25.5 67.5q0 76 88 312l-4 4q-80 -139 -222.5 -273.5t-267.5 -134.5q-76 0 -110.5 52t-34.5 122zM242 299q0 -145 86 -145q84 0 187 108.5t171 243.5t68 217q0 113 -103 113q-100 0 -198.5 -99.5t-154.5 -223.5t-56 -214zM420 1311 q0 47 33.5 80.5t81 33.5t81 -33.5t33.5 -80.5t-33.5 -81t-81 -34t-81 34t-33.5 81zM852 1311q0 47 34 80.5t81 33.5t80.5 -33.5t33.5 -80.5t-33.5 -81t-80.5 -34t-81 34t-34 81z" />
<glyph unicode="&#xe5;" horiz-adv-x="1099" d="M37 143q0 137 73.5 288t179 262.5t224.5 184t207 72.5q43 0 69.5 -17.5t53.5 -62.5l41 97q8 20 41 20q113 0 112 -26q0 -2 -51 -166l-143 -473q-27 -86 -27 -115q0 -33 35 -33q57 0 174 137l43 -43q-6 -8 -47 -51t-63.5 -66.5t-65.5 -63.5t-75 -61.5t-69.5 -39 t-68.5 -17.5q-41 0 -66.5 24.5t-25.5 67.5q0 76 88 312l-4 4q-80 -139 -222.5 -273.5t-267.5 -134.5q-76 0 -110.5 52t-34.5 122zM242 299q0 -145 86 -145q84 0 187 108.5t171 243.5t68 217q0 113 -103 113q-100 0 -198.5 -99.5t-154.5 -223.5t-56 -214zM555 1321 q0 84 62.5 147.5t148.5 63.5q84 0 147.5 -63.5t63.5 -147.5q0 -86 -63.5 -148.5t-147.5 -62.5q-86 0 -148.5 62.5t-62.5 148.5zM645 1321q0 -51 35 -86t86 -35q49 0 85 35t36 86q0 49 -36 85t-85 36q-51 0 -86 -36t-35 -85z" />
<glyph unicode="&#xe6;" horiz-adv-x="1478" d="M37 184q0 127 107.5 302.5t265 304.5t284.5 129q86 0 146 -78l59 137l119 31l20 -17l-53 -145h4q143 100 256 102q94 0 155.5 -43t61.5 -133q0 -88 -62.5 -157.5t-161.5 -111.5t-189.5 -65.5t-180.5 -36.5q-12 -49 -12 -112q0 -76 42 -129t118 -53q147 0 338 159l39 -49 q-82 -76 -141.5 -121t-158 -87t-198.5 -42q-117 0 -180.5 77t-63.5 175q0 57 4 86h-4q-31 -45 -64.5 -87t-95 -107.5t-135 -104.5t-145.5 -39q-90 0 -132 60.5t-42 154.5zM242 264q0 -47 26.5 -78.5t71.5 -31.5q88 0 187.5 106.5t162 237.5t62.5 213q2 57 -26 87.5t-71 30.5 q-135 0 -274 -194.5t-139 -370.5zM887 481q121 4 239.5 94.5t118.5 217.5q0 80 -76 79q-84 0 -170.5 -138t-111.5 -253z" />
<glyph unicode="&#xe7;" horiz-adv-x="909" d="M57 262q0 141 73 273.5t182.5 220.5t233.5 141t228 53q63 0 107.5 -27.5t44.5 -88.5q0 -49 -31 -81t-80 -32q-68 0 -131 51t-98 51q-66 0 -134.5 -101t-110.5 -230.5t-42 -219.5q0 -76 46 -119.5t118 -43.5q154 0 373 202l43 -55q-240 -240 -449 -281l-76 -102q23 4 60 4 q72 0 121 -40t49 -113q0 -70 -70 -118t-174 -48q-106 0 -213 47l35 63q57 -33 137 -33q113 0 113 82q0 37 -26 59.5t-64 22.5q-33 0 -66 -14l-25 25l111 159q-141 6 -213 85t-72 208z" />
<glyph unicode="&#xe8;" horiz-adv-x="909" d="M57 283q0 246 192.5 456.5t426.5 210.5q94 0 155.5 -43t61.5 -133q0 -88 -62.5 -157.5t-162 -111.5t-189.5 -65.5t-180 -36.5q-12 -49 -12 -112q0 -76 42 -129t117 -53q147 0 338 159l39 -49q-82 -76 -141 -121t-157.5 -87t-198.5 -42q-133 0 -201 91.5t-68 222.5z M317 481q121 4 240 94.5t119 217.5q0 80 -76 79q-84 0 -171 -138t-112 -253zM371 1430q0 37 26.5 57t63.5 20q55 0 100 -63l225 -297h-81l-279 196q-55 40 -55 87z" />
<glyph unicode="&#xe9;" horiz-adv-x="909" d="M57 283q0 246 192.5 456.5t426.5 210.5q94 0 155.5 -43t61.5 -133q0 -88 -62.5 -157.5t-162 -111.5t-189.5 -65.5t-180 -36.5q-12 -49 -12 -112q0 -76 42 -129t117 -53q147 0 338 159l39 -49q-82 -76 -141 -121t-157.5 -87t-198.5 -42q-133 0 -201 91.5t-68 222.5z M317 481q121 4 240 94.5t119 217.5q0 80 -76 79q-84 0 -171 -138t-112 -253zM485 1147l269 278q47 47 71.5 64.5t51.5 17.5q35 0 60.5 -25.5t25.5 -64.5q0 -16 -6.5 -28.5t-29 -30t-38 -27.5t-64.5 -39l-250 -145h-90z" />
<glyph unicode="&#xea;" horiz-adv-x="909" d="M57 283q0 246 192.5 456.5t426.5 210.5q94 0 155.5 -43t61.5 -133q0 -88 -62.5 -157.5t-162 -111.5t-189.5 -65.5t-180 -36.5q-12 -49 -12 -112q0 -76 42 -129t117 -53q147 0 338 159l39 -49q-82 -76 -141 -121t-157.5 -87t-198.5 -42q-133 0 -201 91.5t-68 222.5z M297 1147l326 348h137l180 -348h-92l-176 203l-273 -203h-102zM317 481q121 4 240 94.5t119 217.5q0 80 -76 79q-84 0 -171 -138t-112 -253z" />
<glyph unicode="&#xeb;" horiz-adv-x="909" d="M57 283q0 246 192.5 456.5t426.5 210.5q94 0 155.5 -43t61.5 -133q0 -88 -62.5 -157.5t-162 -111.5t-189.5 -65.5t-180 -36.5q-12 -49 -12 -112q0 -76 42 -129t117 -53q147 0 338 159l39 -49q-82 -76 -141 -121t-157.5 -87t-198.5 -42q-133 0 -201 91.5t-68 222.5z M317 481q121 4 240 94.5t119 217.5q0 80 -76 79q-84 0 -171 -138t-112 -253zM324 1311q0 47 33.5 80.5t80.5 33.5t81 -33.5t34 -80.5t-34 -81t-81 -34t-80.5 34t-33.5 81zM756 1311q0 47 33.5 80.5t81 33.5t81 -33.5t33.5 -80.5t-33.5 -81t-81 -34t-81 34t-33.5 81z" />
<glyph unicode="&#xec;" horiz-adv-x="645" d="M57 668q244 283 381 282q55 0 84 -22.5t29 -85.5q0 -55 -105.5 -339t-105.5 -323q0 -27 25 -26q12 0 32.5 11t44 32.5t40 37t38 38t23.5 24.5l39 -45q-121 -147 -210 -215t-182 -68q-41 0 -66.5 27t-25.5 70q0 53 93.5 327.5t93.5 304.5q0 47 -31 47q-23 0 -50.5 -20 t-63.5 -60t-42 -47zM219 1430q0 37 26.5 57t63.5 20q55 0 101 -63l225 -297h-82l-279 196q-55 40 -55 87z" />
<glyph unicode="&#xed;" horiz-adv-x="645" d="M57 668q244 283 381 282q55 0 84 -22.5t29 -85.5q0 -55 -105.5 -339t-105.5 -323q0 -27 25 -26q12 0 32.5 11t44 32.5t40 37t38 38t23.5 24.5l39 -45q-121 -147 -210 -215t-182 -68q-41 0 -66.5 27t-25.5 70q0 53 93.5 327.5t93.5 304.5q0 47 -31 47q-23 0 -50.5 -20 t-63.5 -60t-42 -47zM334 1147l268 278q47 47 71.5 64.5t51.5 17.5q35 0 60.5 -25.5t25.5 -64.5q0 -16 -6 -28.5t-28.5 -30t-38 -27.5t-64.5 -39l-250 -145h-90z" />
<glyph unicode="&#xee;" horiz-adv-x="645" d="M57 668q244 283 381 282q55 0 84 -22.5t29 -85.5q0 -55 -105.5 -339t-105.5 -323q0 -27 25 -26q12 0 32.5 11t44 32.5t40 37t38 38t23.5 24.5l39 -45q-121 -147 -210 -215t-182 -68q-41 0 -66.5 27t-25.5 70q0 53 93.5 327.5t93.5 304.5q0 47 -31 47q-23 0 -50.5 -20 t-63.5 -60t-42 -47zM145 1147l326 348h137l180 -348h-92l-176 203l-272 -203h-103z" />
<glyph unicode="&#xef;" horiz-adv-x="645" d="M57 668q244 283 381 282q55 0 84 -22.5t29 -85.5q0 -55 -105.5 -339t-105.5 -323q0 -27 25 -26q12 0 32.5 11t44 32.5t40 37t38 38t23.5 24.5l39 -45q-121 -147 -210 -215t-182 -68q-41 0 -66.5 27t-25.5 70q0 53 93.5 327.5t93.5 304.5q0 47 -31 47q-23 0 -50.5 -20 t-63.5 -60t-42 -47zM172 1311q0 47 34 80.5t81 33.5t80.5 -33.5t33.5 -80.5t-33.5 -81t-80.5 -34t-81 34t-34 81zM604 1311q0 47 34 80.5t81 33.5t81 -33.5t34 -80.5t-34 -81t-81 -34t-81 34t-34 81z" />
<glyph unicode="&#xf0;" horiz-adv-x="1099" d="M78 365q0 246 169 415.5t404 169.5q96 0 162 -49q0 199 -106 359l-242 -121l-57 75l241 121q-102 102 -219 162l49 68q188 -66 295 -170l236 118l57 -73l-227 -115q2 -4 27.5 -40t42 -61.5t43 -83t43 -114.5t28.5 -143t12 -183q0 -195 -50 -341t-135 -228t-182.5 -122 t-205.5 -40q-172 0 -278.5 118t-106.5 278zM307 281q0 -113 33 -173.5t131 -60.5q86 -2 153.5 62.5t105.5 163t57.5 194.5t19.5 172q0 113 -33 173t-131 60q-86 2 -153.5 -62.5t-105.5 -162.5t-57.5 -194t-19.5 -172z" />
<glyph unicode="&#xf1;" horiz-adv-x="1175" d="M57 657q6 6 45 50.5t59.5 67t61.5 61t71 59t66.5 38t67.5 17.5q96 0 96 -102q0 -35 -25.5 -115t-59 -171t-42.5 -120l4 -4q96 158 275.5 335t306.5 177q55 0 84 -22.5t29 -85.5q0 -55 -105.5 -339t-105.5 -323q0 -27 24 -26q12 0 33 11t44.5 32.5t39.5 37t37.5 38 t23.5 24.5l39 -45q-121 -147 -210 -215t-181 -68q-41 0 -66.5 27t-25.5 70q0 55 93 325.5t93 290.5q0 51 -51 51q-72 0 -196.5 -155.5t-192.5 -276.5q-33 -59 -58.5 -117.5t-36.5 -90.5t-23.5 -57.5t-26 -35.5t-33.5 -10q-82 0 -111.5 6t-29.5 24q0 12 28 105l158 479 q27 92 27 101q0 29 -29 28q-31 0 -158 -117zM446 1192q14 92 80 159.5t164 67.5q53 0 148 -43q94 -45 141 -45q39 0 68.5 29t39.5 57h76q-14 -92 -79.5 -159.5t-163.5 -67.5q-57 0 -148 45q-94 45 -141 45q-39 0 -69 -28.5t-40 -59.5h-76z" />
<glyph unicode="&#xf2;" horiz-adv-x="1099" d="M78 365q0 246 167 415.5t392 169.5q195 0 297 -110.5t102 -284.5q0 -233 -157.5 -409.5t-399.5 -176.5q-182 0 -291.5 117t-109.5 279zM307 281q0 -233 164 -234q88 0 156.5 68.5t105.5 169t55.5 197t18.5 171.5q0 98 -34 158.5t-130 60.5q-86 0 -153.5 -64.5 t-105.5 -160.5t-57.5 -192t-19.5 -174zM446 1430q0 37 27 57t64 20q55 0 100 -63l225 -297h-82l-278 196q-56 40 -56 87z" />
<glyph unicode="&#xf3;" horiz-adv-x="1099" d="M78 365q0 246 167 415.5t392 169.5q195 0 297 -110.5t102 -284.5q0 -233 -157.5 -409.5t-399.5 -176.5q-182 0 -291.5 117t-109.5 279zM307 281q0 -233 164 -234q88 0 156.5 68.5t105.5 169t55.5 197t18.5 171.5q0 98 -34 158.5t-130 60.5q-86 0 -153.5 -64.5 t-105.5 -160.5t-57.5 -192t-19.5 -174zM561 1147l268 278q47 47 72 64.5t51 17.5q35 0 60.5 -25.5t25.5 -64.5q0 -16 -6 -28.5t-28.5 -30t-38 -27.5t-64.5 -39l-250 -145h-90z" />
<glyph unicode="&#xf4;" horiz-adv-x="1099" d="M78 365q0 246 167 415.5t392 169.5q195 0 297 -110.5t102 -284.5q0 -233 -157.5 -409.5t-399.5 -176.5q-182 0 -291.5 117t-109.5 279zM307 281q0 -233 164 -234q88 0 156.5 68.5t105.5 169t55.5 197t18.5 171.5q0 98 -34 158.5t-130 60.5q-86 0 -153.5 -64.5 t-105.5 -160.5t-57.5 -192t-19.5 -174zM373 1147l325 348h138l180 -348h-92l-176 203l-273 -203h-102z" />
<glyph unicode="&#xf5;" horiz-adv-x="1099" d="M78 365q0 246 167 415.5t392 169.5q195 0 297 -110.5t102 -284.5q0 -233 -157.5 -409.5t-399.5 -176.5q-182 0 -291.5 117t-109.5 279zM307 281q0 -233 164 -234q88 0 156.5 68.5t105.5 169t55.5 197t18.5 171.5q0 98 -34 158.5t-130 60.5q-86 0 -153.5 -64.5 t-105.5 -160.5t-57.5 -192t-19.5 -174zM389 1192q14 92 80 159.5t164 67.5q53 0 147 -43q94 -45 142 -45q39 0 68.5 29t39.5 57h76q-14 -92 -79.5 -159.5t-164.5 -67.5q-57 0 -147 45q-94 45 -142 45q-39 0 -68.5 -28.5t-39.5 -59.5h-76z" />
<glyph unicode="&#xf6;" horiz-adv-x="1099" d="M78 365q0 246 167 415.5t392 169.5q195 0 297 -110.5t102 -284.5q0 -233 -157.5 -409.5t-399.5 -176.5q-182 0 -291.5 117t-109.5 279zM307 281q0 -233 164 -234q88 0 156.5 68.5t105.5 169t55.5 197t18.5 171.5q0 98 -34 158.5t-130 60.5q-86 0 -153.5 -64.5 t-105.5 -160.5t-57.5 -192t-19.5 -174zM399 1311q0 47 34 80.5t81 33.5t81 -33.5t34 -80.5t-34 -81t-81 -34t-81 34t-34 81zM831 1311q0 47 34 80.5t81 33.5t81 -33.5t34 -80.5t-34 -81t-81 -34t-81 34t-34 81z" />
<glyph unicode="&#xf7;" d="M53 424v184h1032v-184h-1032zM418 90.5q0 59.5 46 105.5t105.5 46t105.5 -46t46 -105.5t-46 -105.5t-105.5 -46t-105.5 46t-46 105.5zM418 942q0 59 46 105.5t105.5 46.5t105.5 -46.5t46 -105.5t-46 -105t-105.5 -46t-105.5 46t-46 105z" />
<glyph unicode="&#xf8;" horiz-adv-x="1099" d="M14 -20l146 143q-82 104 -82 242q0 246 167 415.5t392 169.5q168 0 272 -90l135 133l56 -53l-139 -137q76 -100 75 -248q0 -233 -157.5 -409.5t-399.5 -176.5q-156 0 -268 97l-141 -140zM307 268l490 482q-27 123 -154 122q-86 0 -153.5 -64.5t-105.5 -162.5 t-57.5 -196.5t-19.5 -180.5zM319 172q27 -125 152 -125q86 0 154.5 67.5t105.5 168t56.5 195.5t19.5 173z" />
<glyph unicode="&#xf9;" horiz-adv-x="1175" d="M57 657q2 4 25.5 30t33 36t35 36.5t40 40t40 37t43 37t42 30t44 25.5t41 15t39.5 6q96 0 97 -102q0 -84 -96.5 -344t-96.5 -293q0 -37 33 -37q84 0 354 397q57 84 105.5 184.5t73 147.5t42.5 47q8 0 52 -16l102 -45l-191 -572q-31 -88 -30 -122q0 -41 24 -41q12 0 33 11 t44.5 32.5t39.5 37t37.5 38t23.5 24.5l39 -45q-131 -141 -216 -212t-154 -71q-49 0 -75 29t-26 65q0 72 152 504l-4 4q-6 -10 -46 -72.5t-61.5 -94t-67.5 -96t-78 -102.5t-81 -89t-89 -79t-88 -48.5t-91 -20.5q-98 0 -99 113q0 57 90.5 330.5t90.5 292.5q0 29 -29 28 q-31 0 -158 -117zM483 1430q0 37 27 57t63 20q55 0 101 -63l225 -297h-82l-278 196q-56 40 -56 87z" />
<glyph unicode="&#xfa;" horiz-adv-x="1175" d="M57 657q2 4 25.5 30t33 36t35 36.5t40 40t40 37t43 37t42 30t44 25.5t41 15t39.5 6q96 0 97 -102q0 -84 -96.5 -344t-96.5 -293q0 -37 33 -37q84 0 354 397q57 84 105.5 184.5t73 147.5t42.5 47q8 0 52 -16l102 -45l-191 -572q-31 -88 -30 -122q0 -41 24 -41q12 0 33 11 t44.5 32.5t39.5 37t37.5 38t23.5 24.5l39 -45q-131 -141 -216 -212t-154 -71q-49 0 -75 29t-26 65q0 72 152 504l-4 4q-6 -10 -46 -72.5t-61.5 -94t-67.5 -96t-78 -102.5t-81 -89t-89 -79t-88 -48.5t-91 -20.5q-98 0 -99 113q0 57 90.5 330.5t90.5 292.5q0 29 -29 28 q-31 0 -158 -117zM598 1147l268 278q47 47 72 64.5t51 17.5q35 0 60.5 -25.5t25.5 -64.5q0 -16 -6 -28.5t-28.5 -30t-38 -27.5t-64.5 -39l-250 -145h-90z" />
<glyph unicode="&#xfb;" horiz-adv-x="1175" d="M57 657q2 4 25.5 30t33 36t35 36.5t40 40t40 37t43 37t42 30t44 25.5t41 15t39.5 6q96 0 97 -102q0 -84 -96.5 -344t-96.5 -293q0 -37 33 -37q84 0 354 397q57 84 105.5 184.5t73 147.5t42.5 47q8 0 52 -16l102 -45l-191 -572q-31 -88 -30 -122q0 -41 24 -41q12 0 33 11 t44.5 32.5t39.5 37t37.5 38t23.5 24.5l39 -45q-131 -141 -216 -212t-154 -71q-49 0 -75 29t-26 65q0 72 152 504l-4 4q-6 -10 -46 -72.5t-61.5 -94t-67.5 -96t-78 -102.5t-81 -89t-89 -79t-88 -48.5t-91 -20.5q-98 0 -99 113q0 57 90.5 330.5t90.5 292.5q0 29 -29 28 q-31 0 -158 -117zM410 1147l325 348h137l181 -348h-92l-177 203l-272 -203h-102z" />
<glyph unicode="&#xfc;" horiz-adv-x="1175" d="M57 657q2 4 25.5 30t33 36t35 36.5t40 40t40 37t43 37t42 30t44 25.5t41 15t39.5 6q96 0 97 -102q0 -84 -96.5 -344t-96.5 -293q0 -37 33 -37q84 0 354 397q57 84 105.5 184.5t73 147.5t42.5 47q8 0 52 -16l102 -45l-191 -572q-31 -88 -30 -122q0 -41 24 -41q12 0 33 11 t44.5 32.5t39.5 37t37.5 38t23.5 24.5l39 -45q-131 -141 -216 -212t-154 -71q-49 0 -75 29t-26 65q0 72 152 504l-4 4q-6 -10 -46 -72.5t-61.5 -94t-67.5 -96t-78 -102.5t-81 -89t-89 -79t-88 -48.5t-91 -20.5q-98 0 -99 113q0 57 90.5 330.5t90.5 292.5q0 29 -29 28 q-31 0 -158 -117zM436 1311q0 47 34 80.5t81 33.5t81 -33.5t34 -80.5t-34 -81t-81 -34t-81 34t-34 81zM868 1311q0 47 34 80.5t81 33.5t81 -33.5t34 -80.5t-34 -81t-81 -34t-81 34t-34 81z" />
<glyph unicode="&#xfd;" horiz-adv-x="1062" d="M-37 -369q0 59 23.5 83t52.5 24q27 0 73 -10.5t85 -10.5q45 0 89 25t65.5 46.5t58 68.5t41.5 53q-16 211 -39 328q-98 528 -244 528q-70 0 -70 -100q0 -4 6 -78l-30 -13l-49 29q0 61 11 116.5t35.5 110t73 87t115.5 32.5q61 0 109.5 -30.5t80 -76.5t57 -119t39 -134.5 t27.5 -147.5l54 -309h4l24 37q23 37 29 47t29.5 49t34 57.5t29 54.5t27.5 59.5t20.5 54t16.5 55t5 45.5q0 47 -24.5 113.5t-24.5 101.5q0 66 31.5 104.5t93.5 38.5q117 0 116 -137q0 -172 -206.5 -510t-540.5 -672q-55 -55 -101.5 -76.5t-111.5 -21.5q-115 0 -115 98z M543 1147l268 278q47 47 71.5 64.5t51.5 17.5q35 0 60.5 -25.5t25.5 -64.5q0 -16 -6 -28.5t-28.5 -30t-38 -27.5t-64.5 -39l-250 -145h-90z" />
<glyph unicode="&#xfe;" d="M-37 -471q57 242 169 688.5t140 562.5q-98 -23 -239 -86l14 76q127 59 248 92q100 442 123 527l-129 67l10 37q236 18 363 72l24 -23l-168 -622q37 10 115 22q51 8 119 8q324 0 323 -256q0 -119 -52 -248t-137 -234.5t-204 -174t-240 -68.5q-92 0 -153 49l-90 -368 l161 -35l-8 -49q-342 -49 -364 -53zM338 154q0 -106 121 -107q102 0 196.5 129t142.5 281.5t48 257.5q0 68 -48 106.5t-134 38.5q-90 0 -166 -16l-127 -512q-33 -137 -33 -178z" />
<glyph unicode="&#xff;" horiz-adv-x="1062" d="M-37 -369q0 59 23.5 83t52.5 24q27 0 73 -10.5t85 -10.5q45 0 89 25t65.5 46.5t58 68.5t41.5 53q-16 211 -39 328q-98 528 -244 528q-70 0 -70 -100q0 -4 6 -78l-30 -13l-49 29q0 61 11 116.5t35.5 110t73 87t115.5 32.5q61 0 109.5 -30.5t80 -76.5t57 -119t39 -134.5 t27.5 -147.5l54 -309h4l24 37q23 37 29 47t29.5 49t34 57.5t29 54.5t27.5 59.5t20.5 54t16.5 55t5 45.5q0 47 -24.5 113.5t-24.5 101.5q0 66 31.5 104.5t93.5 38.5q117 0 116 -137q0 -172 -206.5 -510t-540.5 -672q-55 -55 -101.5 -76.5t-111.5 -21.5q-115 0 -115 98z M381 1311q0 47 34 80.5t81 33.5t80.5 -33.5t33.5 -80.5t-33.5 -81t-80.5 -34t-81 34t-34 81zM813 1311q0 47 34 80.5t81 33.5t80.5 -33.5t33.5 -80.5t-33.5 -81t-80.5 -34t-81 34t-34 81z" />
<glyph unicode="&#x152;" horiz-adv-x="2238" d="M139 639q0 217 93.5 400.5t289 302t461.5 118.5q82 0 174 -14q66 -10 205 -16q180 -8 375 -9q66 0 214 4.5t203 4.5l-36 -314h-60v25q0 113 -43 151.5t-164 38.5q-240 0 -323 -2l-94 -528l239 4q113 2 145.5 30.5t63.5 153.5h66l-80 -485h-68q8 61 8 114q0 51 -26.5 66.5 t-81.5 15.5h-285l-78 -434q-14 -78 -14 -104q0 -37 31.5 -54.5t134.5 -17.5h76q115 0 182.5 7t116.5 18.5t83.5 50.5t57.5 74.5t66 119.5h63l-96 -360q-10 0 -175 4t-253 4q-94 0 -232.5 -4t-156.5 -4q-59 -2 -195 -14q-180 -16 -215 -17q-301 0 -486.5 179.5t-185.5 490.5z M406 541q0 -199 108.5 -346.5t306.5 -147.5q127 0 184.5 31t73.5 127l152 854q25 152 24 190q0 133 -251 133q-131 0 -236.5 -52t-171.5 -136t-110 -195.5t-62 -225t-18 -232.5z" />
<glyph unicode="&#x153;" horiz-adv-x="1554" d="M78 365q0 246 169 415.5t404 169.5q88 0 168 -42t115 -146q168 188 387 188q94 0 155.5 -43t61.5 -133q0 -88 -62.5 -157.5t-162 -111.5t-189.5 -65.5t-180 -36.5q-12 -49 -12 -112q0 -76 42 -129t118 -53q147 0 338 159l38 -49q-82 -76 -141 -121t-157.5 -87t-198.5 -42 q-74 0 -127 42t-78 108q-109 -150 -313 -150q-166 0 -270.5 118t-104.5 278zM307 281q0 -113 31 -173.5t123 -60.5q90 0 159.5 77t104.5 189.5t51.5 210t16.5 166.5q0 182 -168 182q-102 0 -182.5 -122.5t-111 -256.5t-24.5 -212zM963 481q121 4 239.5 94.5t118.5 217.5 q0 80 -76 79q-84 0 -170.5 -138t-111.5 -253z" />
<glyph unicode="&#x178;" horiz-adv-x="1290" d="M80 1368l10 62q39 0 154.5 -4.5t179.5 -4.5q53 0 152.5 4.5t130.5 4.5l-9 -62q-86 0 -119.5 -12.5t-33.5 -48.5q0 -49 53 -191l154 -418l309 492q49 80 49 115q0 63 -152 63l9 62q27 0 113.5 -4.5t134 -4.5t133.5 4.5t112 4.5l-8 -62q-84 0 -131 -29.5t-102 -115.5 l-426 -648l-54 -292q-20 -111 -20 -162q0 -59 123 -60h61l-10 -61q-37 0 -153.5 4t-180.5 4q-57 0 -163.5 -4t-139.5 -4l10 61h39q94 0 122 33t46 135l66 338l-220 578q-57 152 -97 187.5t-142 35.5zM514 1692q0 47 34 80.5t81 33.5t80.5 -33.5t33.5 -80.5t-33.5 -81 t-80.5 -34t-81 34t-34 81zM946 1692q0 47 34 80.5t81 33.5t81 -33.5t34 -80.5t-34 -81t-81 -34t-81 34t-34 81z" />
<glyph unicode="&#x2c6;" horiz-adv-x="569" d="M106 1147l326 348h137l181 -348h-93l-176 203l-272 -203h-103z" />
<glyph unicode="&#x2dc;" horiz-adv-x="569" d="M123 1192q14 92 79.5 159.5t164.5 67.5q53 0 147 -43q94 -45 141 -45q39 0 69 29t40 57h76q-14 -92 -80 -159.5t-164 -67.5q-57 0 -147 45q-94 45 -142 45q-39 0 -68.5 -28.5t-39.5 -59.5h-76z" />
<glyph unicode="&#x2000;" horiz-adv-x="976" />
<glyph unicode="&#x2001;" horiz-adv-x="1955" />
<glyph unicode="&#x2002;" horiz-adv-x="976" />
<glyph unicode="&#x2003;" horiz-adv-x="1955" />
<glyph unicode="&#x2004;" horiz-adv-x="651" />
<glyph unicode="&#x2005;" horiz-adv-x="487" />
<glyph unicode="&#x2006;" horiz-adv-x="325" />
<glyph unicode="&#x2007;" horiz-adv-x="325" />
<glyph unicode="&#x2008;" horiz-adv-x="243" />
<glyph unicode="&#x2009;" horiz-adv-x="391" />
<glyph unicode="&#x200a;" horiz-adv-x="108" />
<glyph unicode="&#x2010;" horiz-adv-x="757" d="M88 406q23 53 51 163q258 -6 260 -6l295 6q-33 -123 -41 -163q-33 0 -92 2t-108.5 3t-92.5 1q-2 0 -272 -6z" />
<glyph unicode="&#x2011;" horiz-adv-x="757" d="M88 406q23 53 51 163q258 -6 260 -6l295 6q-33 -123 -41 -163q-33 0 -92 2t-108.5 3t-92.5 1q-2 0 -272 -6z" />
<glyph unicode="&#x2012;" horiz-adv-x="757" d="M88 406q23 53 51 163q258 -6 260 -6l295 6q-33 -123 -41 -163q-33 0 -92 2t-108.5 3t-92.5 1q-2 0 -272 -6z" />
<glyph unicode="&#x2013;" horiz-adv-x="1024" d="M0 406l25 163h1024l-25 -163h-1024z" />
<glyph unicode="&#x2014;" horiz-adv-x="2048" d="M0 406l25 163h2048l-25 -163h-2048z" />
<glyph unicode="&#x2018;" horiz-adv-x="569" d="M207 1057q0 158 132 259t302 114l18 -62q-51 -4 -116.5 -25.5t-123 -65.5t-57.5 -93q0 -41 27 -60.5t59.5 -24.5t59.5 -35t27 -89q0 -53 -42 -88t-98 -35q-188 0 -188 205z" />
<glyph unicode="&#x2019;" horiz-adv-x="569" d="M141 913q51 4 117 26t123 66t57 93q0 41 -26.5 60.5t-59.5 24.5t-59.5 34.5t-26.5 89.5q0 53 42 88t98 35q188 0 188 -205q0 -158 -132 -259.5t-302 -113.5z" />
<glyph unicode="&#x201a;" horiz-adv-x="569" d="M-31 -254q51 4 117 25.5t123 65.5t57 93q0 41 -26.5 60.5t-59.5 24.5t-59.5 35t-26.5 89q0 53 42 88t97 35q188 0 189 -205q0 -158 -132 -259t-302 -113z" />
<glyph unicode="&#x201c;" horiz-adv-x="1062" d="M219 1057q0 158 132 259t302 114l19 -62q-51 -4 -117 -25.5t-123 -65.5t-57 -93q0 -41 26.5 -60.5t59.5 -24.5t59.5 -35t26.5 -89q0 -53 -42 -88t-97 -35q-189 0 -189 205zM676 1057q0 158 132 259t302 114l18 -62q-51 -4 -116.5 -25.5t-123 -65.5t-57.5 -93 q0 -41 27 -60.5t59.5 -24.5t59.5 -35t27 -89q0 -53 -42 -88t-98 -35q-188 0 -188 205z" />
<glyph unicode="&#x201d;" horiz-adv-x="1062" d="M166 913q51 4 116.5 26t123 66t57.5 93q0 41 -26.5 60.5t-59.5 24.5t-59.5 34.5t-26.5 89.5q0 53 42 88t97 35q188 0 188 -205q0 -158 -132 -259.5t-302 -113.5zM623 913q51 4 116.5 26t123 66t57.5 93q0 41 -27 60.5t-59.5 24.5t-59 34.5t-26.5 89.5q0 53 41.5 88 t97.5 35q188 0 188 -205q0 -158 -132 -259.5t-302 -113.5z" />
<glyph unicode="&#x201e;" horiz-adv-x="1062" d="M-31 -254q51 4 117 25.5t123 65.5t57 93q0 41 -26.5 60.5t-59.5 24.5t-59.5 35t-26.5 89q0 53 42 88t97 35q188 0 189 -205q0 -158 -132 -259t-302 -113zM426 -254q51 4 116.5 25.5t123 65.5t57.5 93q0 41 -26.5 60.5t-59.5 24.5t-59.5 35t-26.5 89q0 53 42 88t97 35 q188 0 189 -205q0 -158 -132.5 -259t-302.5 -113z" />
<glyph unicode="&#x2022;" horiz-adv-x="1024" d="M186 714.5q0 149.5 103.5 253t253 103.5t254 -103.5t104.5 -253t-104.5 -254t-254 -104.5t-253 104.5t-103.5 254z" />
<glyph unicode="&#x2026;" horiz-adv-x="2048" d="M119 120.5q0 59.5 46 105.5t105.5 46t105.5 -46t46 -105.5t-46 -105.5t-105.5 -46t-105.5 46t-46 105.5zM801 120.5q0 59.5 46 105.5t105.5 46t105.5 -46t46 -105.5t-46 -105.5t-105.5 -46t-105.5 46t-46 105.5zM1483 120.5q0 59.5 46 105.5t105.5 46t105.5 -46 t46 -105.5t-46 -105.5t-105.5 -46t-105.5 46t-46 105.5z" />
<glyph unicode="&#x202f;" horiz-adv-x="391" />
<glyph unicode="&#x2039;" horiz-adv-x="681" d="M106 487l461 349l31 -39l-287 -310l183 -319l-43 -29z" />
<glyph unicode="&#x203a;" horiz-adv-x="681" d="M106 178l287 309l-182 320l43 29l344 -349l-461 -348z" />
<glyph unicode="&#x205f;" horiz-adv-x="487" />
<glyph unicode="&#x20ac;" d="M45 496l33 102h96v20q0 63 10 142h-121l31 102h113q66 250 238.5 424t400.5 174q100 0 197.5 -42t107.5 -42q25 0 59 35h43l-67 -354h-64q4 25 4 51q0 127 -75.5 199.5t-188.5 72.5q-174 0 -287.5 -148.5t-160.5 -369.5h610l-33 -102h-594q-10 -86 -10 -150v-12h551 l-33 -102h-512q25 -186 121 -313.5t266 -127.5q137 0 252 111l43 -51q-61 -66 -156.5 -106t-193.5 -40q-229 0 -370.5 150.5t-172.5 376.5h-137z" />
<glyph unicode="&#x2122;" horiz-adv-x="2048" d="M96 1249v181h742v-181h-50q-27 131 -133 131h-96v-632q0 -63 15.5 -78t91.5 -19v-49h-398v49q76 4 91.5 18.5t15.5 78.5v632h-99q-104 0 -131 -131h-49zM922 1380v50h284l291 -592l309 592h242v-50q-70 0 -92.5 -21.5t-22.5 -74.5v-536q0 -63 16.5 -78t98.5 -19v-49h-403 v49q76 4 90 18.5t14 78.5v452h-4l-303 -598h-27l-287 598h-4v-409q0 -82 18.5 -110t88.5 -30v-49h-273v49q68 2 86.5 30t18.5 110v485q-43 104 -141 104z" />
<glyph unicode="&#xe000;" horiz-adv-x="950" d="M0 950h950v-950h-950v950z" />
<glyph unicode="&#xfb01;" horiz-adv-x="1251" d="M18 -471l281 1288h-199l23 103h196q45 295 215.5 470t423.5 175q109 0 197 -50.5t88 -158.5q0 -135 -125 -135q-92 0 -92 127q0 61 -36 94t-95 33q-47 0 -87 -17.5t-68.5 -42t-55.5 -67.5t-43 -79t-33.5 -92.5t-26 -90t-20.5 -90t-18 -76.5h446q86 0 176 8l21 -23 q-55 -113 -90 -229l-105 -350q-27 -92 -26 -131q0 -41 24 -41q12 0 32.5 11t44.5 32.5t40 37t37.5 38t23.5 24.5l39 -45q-121 -147 -210 -215t-181 -68q-41 0 -66.5 27t-25.5 70q0 86 43 225l154 510l-11 16h-383q-25 -123 -54.5 -247t-70.5 -268t-67.5 -232t-80.5 -266.5 t-73 -239.5l-139 -51z" />
<glyph unicode="&#xfb02;" horiz-adv-x="1251" d="M18 -471l281 1288h-199l23 103h199q14 80 61 225q51 156 227 288t334 132q115 0 203 -62l141 62l25 -23q-78 -264 -129 -471l-197 -780q-18 -78 -18 -98q0 -39 30 -39q51 0 189 149l39 -41q-156 -172 -235 -232.5t-150 -60.5q-102 0 -103 115q0 43 54 268l247 1018 q-2 2 -20.5 13.5t-32.5 18.5t-35.5 16t-47 14.5t-50.5 5.5q-113 0 -170 -66.5t-86 -208.5l-49 -243h239l-22 -103h-240q-25 -123 -54.5 -247t-70.5 -268t-67.5 -232t-80.5 -266.5t-73 -239.5l-139 -51z" />
<glyph unicode="&#xfb03;" horiz-adv-x="2009" d="M1421 668q244 283 381 282q55 0 84 -22.5t29 -85.5q0 -55 -105.5 -339t-105.5 -323q0 -27 25 -26q12 0 32.5 11t44 32.5t40 37t38 38t23.5 24.5l39 -45q-121 -147 -210 -215t-182 -68q-41 0 -66.5 27t-25.5 70q0 53 93.5 327.5t93.5 304.5q0 47 -31 47q-23 0 -50.5 -20 t-63.5 -60t-42 -47zM1739 1333q0 51 38 89t89 38t89 -38t38 -89t-38 -89t-89 -38t-89 38t-38 89zM700 -471l281 1288h-199l23 103h203q45 291 212 468t361 177q41 0 66.5 -22.5t25.5 -59.5q0 -135 -76 -135q-29 0 -86 32q-53 33 -102 33q-33 0 -55.5 -18.5t-36.5 -61.5 t-21.5 -72.5t-17.5 -91.5l-43 -249h235l-22 -103h-240q-25 -123 -54.5 -247t-70.5 -268t-67.5 -232t-80.5 -266.5t-73 -239.5l-139 -51zM18 -471l281 1288h-199l23 103h203q45 291 212 468t361 177q41 0 66.5 -22.5t25.5 -59.5q0 -135 -76 -135q-29 0 -86 32q-53 33 -102 33 q-33 0 -55.5 -18.5t-36.5 -61.5t-21.5 -72.5t-17.5 -91.5l-43 -249h235l-22 -103h-240q-25 -123 -54.5 -247t-70.5 -268t-67.5 -232t-80.5 -266.5t-73 -239.5l-139 -51z" />
<glyph unicode="&#xfb04;" horiz-adv-x="1970" d="M1458 84q0 43 53 268l252 1037l-129 67l11 37q166 6 362 72l25 -23q-78 -264 -129 -471l-197 -780q-18 -78 -18 -98q0 -39 30 -39q51 0 189 149l39 -41q-156 -172 -235 -232.5t-150 -60.5q-103 0 -103 115zM700 -471l281 1288h-199l23 103h203q45 291 212 468t361 177 q41 0 66.5 -22.5t25.5 -59.5q0 -135 -76 -135q-29 0 -86 32q-53 33 -102 33q-33 0 -55.5 -18.5t-36.5 -61.5t-21.5 -72.5t-17.5 -91.5l-43 -249h235l-22 -103h-240q-25 -123 -54.5 -247t-70.5 -268t-67.5 -232t-80.5 -266.5t-73 -239.5l-139 -51zM18 -471l281 1288h-199 l23 103h203q45 291 212 468t361 177q41 0 66.5 -22.5t25.5 -59.5q0 -135 -76 -135q-29 0 -86 32q-53 33 -102 33q-33 0 -55.5 -18.5t-36.5 -61.5t-21.5 -72.5t-17.5 -91.5l-43 -249h235l-22 -103h-240q-25 -123 -54.5 -247t-70.5 -268t-67.5 -232t-80.5 -266.5t-73 -239.5 l-139 -51z" />
</font>
</defs>
</svg>
